<svg width="40" height="40" viewBox="0 0 40 40" fill="none" xmlns="http://www.w3.org/2000/svg">
<path d="M23.332 3.3335H6.66536C4.81536 3.3335 3.33203 4.8335 3.33203 6.66683V23.3335H6.66536V6.66683H23.332V3.3335ZM29.9987 10.0002H13.332C11.482 10.0002 9.9987 11.5002 9.9987 13.3335V30.0002H13.332V13.3335H29.9987V10.0002ZM33.332 16.6668H19.9987C18.1487 16.6668 16.6654 18.1668 16.6654 20.0002V33.3335C16.6654 35.1668 18.1487 36.6668 19.9987 36.6668H33.332C35.1654 36.6668 36.6654 35.1668 36.6654 33.3335V20.0002C36.6654 18.1668 35.1654 16.6668 33.332 16.6668Z" fill="#0A4B32"/>
</svg>
