<svg width="40" height="40" viewBox="0 0 40 40" fill="none" xmlns="http://www.w3.org/2000/svg">
<path d="M34.1654 18.3332H31.6654V11.6665C31.6654 9.83317 30.1654 8.33317 28.332 8.33317H21.6654V5.83317C21.6654 3.53317 19.7987 1.6665 17.4987 1.6665C15.1987 1.6665 13.332 3.53317 13.332 5.83317V8.33317H6.66536C4.83203 8.33317 3.3487 9.83317 3.3487 11.6665V17.9998H5.83203C8.31536 17.9998 10.332 20.0165 10.332 22.4998C10.332 24.9832 8.31536 26.9998 5.83203 26.9998H3.33203V33.3332C3.33203 35.1665 4.83203 36.6665 6.66536 36.6665H12.9987V34.1665C12.9987 31.6832 15.0154 29.6665 17.4987 29.6665C19.982 29.6665 21.9987 31.6832 21.9987 34.1665V36.6665H28.332C30.1654 36.6665 31.6654 35.1665 31.6654 33.3332V26.6665H34.1654C36.4654 26.6665 38.332 24.7998 38.332 22.4998C38.332 20.1998 36.4654 18.3332 34.1654 18.3332Z" fill="#FF8449"/>
</svg>
