<svg width="171" height="28" viewBox="0 0 171 28" fill="none" xmlns="http://www.w3.org/2000/svg">
<g clip-path="url(#clip0_12_239)">
<path d="M27.2251 9.46624C26.1203 8.85167 24.8752 8.5391 23.6135 8.55954C22.4516 8.54191 21.3053 8.8307 20.2882 9.3973C19.417 9.89498 18.6869 10.6096 18.1678 11.4727V8.69514H16.3438V28.1544H18.2498V20.1997C18.7699 21.0214 19.4789 21.7046 20.3167 22.1913C21.3243 22.7654 22.4653 23.0593 23.6227 23.0428C24.8859 23.0635 26.1321 22.7463 27.2342 22.1235C28.2856 21.5229 29.1531 20.6428 29.7422 19.5791C30.3502 18.4966 30.6542 17.2325 30.6542 15.7868C30.6542 14.3618 30.3502 13.1034 29.7422 12.0117C29.156 10.9425 28.2839 10.0605 27.2251 9.46624ZM28.0402 18.6954C27.6031 19.5081 26.9528 20.1839 26.1603 20.649C25.3429 21.1173 24.4156 21.3555 23.4756 21.3386C22.5317 21.3542 21.6008 21.1162 20.7784 20.649C19.9818 20.1892 19.3302 19.512 18.8985 18.6954C18.4425 17.8565 18.2145 16.8866 18.2145 15.7857C18.2145 14.6847 18.4425 13.7194 18.8985 12.8897C19.3362 12.079 19.9865 11.4052 20.7784 10.9418C21.5991 10.4649 22.5329 10.2215 23.4802 10.2374C24.408 10.218 25.3233 10.4549 26.1271 10.9224C26.9309 11.3899 27.5925 12.0703 28.0402 12.8897C28.5053 13.7209 28.7378 14.6863 28.7378 15.7857C28.7378 16.8851 28.5053 17.855 28.0402 18.6954Z" fill="#1F1C19"/>
<path d="M36.453 8.69531H34.5469V22.9039H36.453V8.69531Z" fill="#1F1C19"/>
<path d="M35.5061 2.82077C35.3228 2.8164 35.1405 2.8489 34.9698 2.91638C34.7991 2.98387 34.6435 3.08497 34.512 3.21379C34.3821 3.33677 34.2792 3.48577 34.2099 3.65123C34.1406 3.81669 34.1064 3.99494 34.1096 4.17452C34.1072 4.35603 34.1417 4.5361 34.2109 4.70368C34.2801 4.87126 34.3826 5.02281 34.512 5.14903C34.781 5.40938 35.1394 5.55477 35.5123 5.55477C35.8852 5.55477 36.2437 5.40938 36.5127 5.14903C36.6403 5.01645 36.7405 4.85953 36.8072 4.68746C36.874 4.5154 36.906 4.33164 36.9014 4.14694C36.9055 3.96926 36.8717 3.79276 36.8023 3.6294C36.7329 3.46603 36.6294 3.3196 36.499 3.20001C36.23 2.94748 35.8735 2.81133 35.5061 2.82077Z" fill="#5EA3D6"/>
<path d="M43.6717 2.82227H41.7656V22.9033H43.6717V2.82227Z" fill="#1F1C19"/>
<path d="M50.8905 2.82227H48.9844V22.9033H50.8905V2.82227Z" fill="#1F1C19"/>
<path d="M93.8574 8.82233C92.972 8.36265 91.9562 8.13281 90.8101 8.13281C89.4315 8.13281 88.2098 8.46684 87.145 9.13491C86.5571 9.50048 86.0373 9.96724 85.6095 10.5139C85.2838 9.97284 84.8464 9.50878 84.327 9.1533C83.3329 8.47604 82.1739 8.13741 80.85 8.13741C79.7503 8.11734 78.664 8.3829 77.6956 8.90852C77.172 9.20016 76.7038 9.58302 76.3128 10.0393V8.34312H72.3125V22.9034H76.5009V15.5957C76.5009 14.73 76.635 14.0175 76.9033 13.4582C77.1405 12.9295 77.5344 12.4879 78.0307 12.1941C78.5301 11.9099 79.0956 11.7651 79.6689 11.7746C80.5444 11.7746 81.2197 12.0542 81.6947 12.6135C82.1697 13.1728 82.4072 14.0389 82.4072 15.2118V22.8976H86.5944V15.5957C86.5944 14.73 86.7289 14.0175 86.998 13.4582C87.2352 12.9295 87.6291 12.4879 88.1254 12.1941C88.6244 11.9099 89.1895 11.7651 89.7625 11.7746C90.6403 11.7746 91.3205 12.0542 91.8031 12.6135C92.2857 13.1728 92.5274 14.0389 92.5281 15.2118V22.8976H96.7165V14.5683C96.7165 13.0889 96.4615 11.8757 95.9515 10.9288C95.4839 10.0271 94.7529 9.29178 93.8574 8.82233Z" fill="#1F1C19"/>
<path d="M111.047 9.03263C109.865 8.41728 108.551 8.10581 107.221 8.12592C105.753 8.12592 104.437 8.44616 103.274 9.08664C102.136 9.70349 101.185 10.6202 100.522 11.739C99.8504 12.8675 99.5149 14.1622 99.5156 15.6233C99.5156 17.0666 99.8576 18.3522 100.542 19.4799C101.238 20.6228 102.238 21.5461 103.428 22.1449C104.672 22.7946 106.116 23.1194 107.76 23.1194C109.067 23.1194 110.221 22.9164 111.223 22.5104C112.181 22.1361 113.037 21.5378 113.72 20.7647L111.494 18.3296C111.035 18.7825 110.493 19.1408 109.898 19.3846C109.249 19.6327 108.559 19.7532 107.865 19.7397C107.092 19.7585 106.325 19.5964 105.624 19.2662C105.003 18.968 104.486 18.4872 104.142 17.8872C103.951 17.5544 103.811 17.1939 103.729 16.8184H114.651C114.67 16.638 114.687 16.4438 114.706 16.2369C114.726 16.0301 114.732 15.8439 114.732 15.6819C114.732 14.1121 114.401 12.7633 113.738 11.6356C113.102 10.5298 112.169 9.62755 111.047 9.03263ZM105.355 11.7907C105.933 11.4671 106.586 11.3038 107.247 11.3172C107.904 11.3025 108.554 11.466 109.127 11.7907C109.66 12.1026 110.097 12.5572 110.389 13.1042C110.596 13.4915 110.732 13.913 110.791 14.3488H103.681C103.743 13.9181 103.878 13.5013 104.08 13.1169C104.372 12.5625 104.814 12.1033 105.355 11.793V11.7907Z" fill="#1F1C19"/>
<path d="M124.027 19.7649C123.472 19.7649 123.033 19.5979 122.712 19.2639C122.39 18.9298 122.23 18.4564 122.23 17.8435V11.9159H125.826V8.66831H122.23V5.12305H118.041V8.66831H115.812V11.9159H118.041V17.9021C118.041 19.6335 118.515 20.936 119.464 21.8093C120.412 22.6827 121.737 23.1202 123.437 23.1217C124.066 23.1234 124.693 23.0462 125.303 22.8919C125.856 22.7607 126.379 22.5269 126.847 22.2024L125.719 19.226C125.232 19.593 124.635 19.783 124.027 19.7649Z" fill="#1F1C19"/>
<path d="M139.203 9.03263C138.021 8.41728 136.707 8.10581 135.377 8.12592C133.91 8.12592 132.595 8.44616 131.43 9.08664C130.292 9.70349 129.341 10.6202 128.679 11.739C128.008 12.8675 127.673 14.1622 127.672 15.6233C127.672 17.0666 128.014 18.3522 128.698 19.4799C129.394 20.6226 130.394 21.5458 131.584 22.1449C132.828 22.7946 134.272 23.1194 135.916 23.1194C137.223 23.1194 138.377 22.9164 139.38 22.5104C140.337 22.1361 141.193 21.5378 141.876 20.7647L139.645 18.3296C139.187 18.7827 138.644 19.1411 138.049 19.3846C137.402 19.6308 136.714 19.7501 136.022 19.7362C135.249 19.7547 134.482 19.5927 133.781 19.2627C133.16 18.9645 132.644 18.4838 132.299 17.8837C132.108 17.551 131.969 17.1905 131.886 16.815H142.809C142.827 16.6345 142.845 16.4403 142.864 16.2335C142.882 16.0266 142.89 15.8404 142.89 15.6784C142.89 14.1086 142.559 12.7598 141.897 11.6321C141.259 10.5274 140.326 9.62637 139.203 9.03263ZM133.511 11.7907C134.09 11.467 134.743 11.3036 135.405 11.3172C136.061 11.3027 136.71 11.4662 137.283 11.7907C137.816 12.1026 138.253 12.5572 138.545 13.1042C138.752 13.4917 138.889 13.9131 138.949 14.3488H131.837C131.899 13.9181 132.034 13.5013 132.236 13.1169C132.528 12.5625 132.97 12.1033 133.511 11.793V11.7907Z" fill="#1F1C19"/>
<path d="M151.198 8.92369C150.606 9.25098 150.093 9.70572 149.694 10.2556V8.3422H145.695V22.9025H149.884V16.028C149.884 14.639 150.237 13.6151 150.944 12.9562C151.651 12.2973 152.577 11.9683 153.723 11.9691C153.884 11.9691 154.036 11.9691 154.179 11.9817C154.323 11.9943 154.484 12.0047 154.663 12.0231V8.125C153.302 8.125 152.147 8.39123 151.198 8.92369Z" fill="#1F1C19"/>
<path d="M65.1854 9.33573C64.1211 8.7078 62.9061 8.3866 61.6731 8.40718C60.4161 8.4225 59.1754 8.78603 57.951 9.49776C56.7426 10.2011 55.8215 11.0955 55.1876 12.1811C54.5577 13.2517 54.2257 14.4736 54.2266 15.7183C54.2213 16.9878 54.5766 18.2473 55.2925 19.4969C55.9993 20.7311 56.9014 21.6666 57.9989 22.3032C59.0707 22.9341 60.2918 23.2613 61.5329 23.2502C62.8308 23.2332 64.1012 22.8705 65.2151 22.1987C66.4235 21.4953 67.3503 20.5921 67.9955 19.4889C68.6327 18.4124 68.9636 17.1798 68.952 15.9264C68.9452 14.6546 68.5883 13.4012 67.8815 12.1662C67.1702 10.9136 66.2715 9.97009 65.1854 9.33573ZM67.0528 16.0493C67.0821 16.9793 66.8543 17.8992 66.395 18.7063C65.9062 19.5403 65.2048 20.2272 64.3635 20.6955C63.5541 21.183 62.6296 21.4421 61.6868 21.4459C60.7612 21.4428 59.8543 21.1836 59.0648 20.6967C58.2349 20.1987 57.5436 19.467 56.9911 18.5017C56.4302 17.5218 56.1452 16.5488 56.1361 15.5827C56.1185 14.6521 56.3522 13.7341 56.8121 12.927C57.3066 12.1095 57.9969 11.4302 58.8195 10.9515C59.6421 10.4729 60.5708 10.2101 61.5203 10.1873C62.4413 10.1883 63.344 10.446 64.1287 10.932C64.9449 11.4261 65.6338 12.1639 66.1955 13.1453C66.7457 14.1129 67.0315 15.0809 67.0528 16.0493Z" fill="#1F1C19"/>
<path d="M63.6822 13.8227L58.8224 16.6532C58.744 16.6985 58.6753 16.7588 58.6201 16.8309C58.5648 16.903 58.5242 16.9853 58.5006 17.0732C58.4769 17.161 58.4707 17.2528 58.4822 17.3431C58.4937 17.4334 58.5227 17.5205 58.5676 17.5995C58.6125 17.6785 58.6724 17.7479 58.7439 17.8035C58.8154 17.8592 58.8971 17.9001 58.9842 17.924C59.0714 17.9478 59.1624 17.9541 59.252 17.9425C59.3416 17.9309 59.428 17.9017 59.5064 17.8564L64.3719 15.0294C64.4503 14.9841 64.519 14.9237 64.5743 14.8516C64.6295 14.7796 64.6701 14.6973 64.6937 14.6094C64.7174 14.5215 64.7237 14.4298 64.7122 14.3395C64.7007 14.2492 64.6716 14.162 64.6267 14.083C64.5818 14.004 64.5219 13.9347 64.4504 13.879C64.3789 13.8234 64.2973 13.7824 64.2101 13.7586C64.034 13.7104 63.8462 13.7347 63.6879 13.8262L63.6822 13.8227Z" fill="#5EA3D6"/>
</g>
<defs>
<clipPath id="clip0_12_239">
<rect width="171" height="28" fill="white"/>
</clipPath>
</defs>
</svg>
