<svg width="35" height="34" viewBox="0 0 35 34" fill="none" xmlns="http://www.w3.org/2000/svg">
<path d="M13.4732 23.8896V14.7052H10.3335V23.8896H13.4736H13.4732ZM11.904 13.4515C12.9987 13.4515 13.6802 12.7462 13.6802 11.8648C13.6597 10.9634 12.9987 10.2778 11.9248 10.2778C10.8503 10.2778 10.1484 10.9634 10.1484 11.8648C10.1484 12.7461 10.8297 13.4514 11.8835 13.4514H11.9038L11.904 13.4515ZM15.2111 23.8896H18.3506V18.7612C18.3506 18.487 18.3711 18.2122 18.4541 18.0164C18.6809 17.4677 19.1975 16.8998 20.0651 16.8998C21.2009 16.8998 21.6555 17.742 21.6555 18.9767V23.8896H24.7949V18.6236C24.7949 15.8026 23.2462 14.4899 21.1806 14.4899C19.487 14.4899 18.7432 15.4102 18.33 16.0371H18.3509V14.7055H15.2113C15.2523 15.5671 15.2111 23.8899 15.2111 23.8899L15.2111 23.8896Z" fill="#1F1C19"/>
</svg>
