<svg width="8" height="8" viewBox="0 0 8 8" fill="none" xmlns="http://www.w3.org/2000/svg">
<g clip-path="url(#clip0_12_87)">
<path d="M3.66662 4.99995H4.33329V5.66662H3.66662V4.99995ZM3.66662 2.33329H4.33329V4.33329H3.66662V2.33329ZM3.99662 0.666625C2.15662 0.666625 0.666625 2.15996 0.666625 3.99995C0.666625 5.83995 2.15662 7.33328 3.99662 7.33328C5.83995 7.33328 7.33328 5.83995 7.33328 3.99995C7.33328 2.15996 5.83995 0.666625 3.99662 0.666625ZM3.99995 6.66662C2.52662 6.66662 1.33329 5.47329 1.33329 3.99995C1.33329 2.52662 2.52662 1.33329 3.99995 1.33329C5.47329 1.33329 6.66662 2.52662 6.66662 3.99995C6.66662 5.47329 5.47329 6.66662 3.99995 6.66662Z" fill="#1C1B1F"/>
</g>
<defs>
<clipPath id="clip0_12_87">
<rect width="7.7495" height="7.7495" fill="white" transform="scale(1.03232)"/>
</clipPath>
</defs>
</svg>
