<svg width="31" height="7" viewBox="0 0 31 7" fill="none" xmlns="http://www.w3.org/2000/svg">
<path d="M3.38358 0.135752C2.90987 -0.0700015 2.39192 -0.0339179 1.96704 0.190261C1.64513 0.359931 1.37738 0.637083 1.22177 0.997919L0.134758 3.52991C-0.0200935 3.89075 -0.0368754 4.27692 0.0607647 4.62931C0.18968 5.09456 0.518453 5.49915 0.991397 5.70568C1.4651 5.91143 1.98305 5.87534 2.40794 5.65117C2.72985 5.4815 2.9976 5.20434 3.15321 4.84351L4.24098 2.31152C4.39583 1.95068 4.41262 1.56451 4.31497 1.21212C4.18606 0.746869 3.85729 0.342273 3.38434 0.135752H3.38358ZM3.90534 2.16565L2.81757 4.69764C2.53762 5.34945 1.7832 5.64963 1.13633 5.36864C0.488703 5.08688 0.190443 4.32759 0.469633 3.67655L1.5574 1.14379C1.83736 0.491981 2.59178 0.191796 3.23865 0.472788C3.88627 0.754547 4.18453 1.51384 3.90534 2.16488V2.16565Z" fill="#5EA3D6"/>
<path d="M2.98867 3.14711C2.96426 3.06957 2.88417 3.02504 2.8056 3.04346C2.29528 3.1617 1.89785 2.99433 1.68655 2.57284C1.6507 2.50144 1.56831 2.46766 1.49432 2.49607L1.48669 2.49914C1.40126 2.53138 1.36159 2.63119 1.40278 2.71334C1.67968 3.26764 2.22433 3.50487 2.87883 3.35363C2.96655 3.33367 3.01919 3.24231 2.99172 3.15555L2.98944 3.14788L2.98867 3.14711Z" fill="#4CAF50"/>
<path d="M8.84663 1.51671C8.52473 1.34704 8.15324 1.26259 7.7314 1.26259H6.25536V5.32699H7.73979C8.15934 5.32699 8.5293 5.24254 8.85045 5.07287C9.17083 4.9032 9.41951 4.6652 9.59572 4.35734C9.77193 4.04947 9.85965 3.69401 9.85965 3.29172C9.85965 2.88942 9.77116 2.5378 9.59419 2.23071C9.41722 1.92361 9.16778 1.68561 8.84587 1.51671H8.84663ZM9.13498 4.12087C9.0053 4.35273 8.81993 4.53238 8.57965 4.65906C8.33936 4.78573 8.0556 4.84869 7.72911 4.84869H6.77331V1.73475H7.71767C8.04797 1.73475 8.33479 1.79924 8.57736 1.92899C8.81993 2.05873 9.00606 2.24146 9.13574 2.47869C9.26542 2.71592 9.33026 2.99077 9.33026 3.30323C9.33026 3.6157 9.26542 3.88825 9.13574 4.12087H9.13498Z" fill="#5EA3D6"/>
<path d="M11.1446 2.54632C10.989 2.66301 10.8745 2.825 10.8021 3.03229V2.37127H10.3238V5.32859H10.8219V3.93669C10.8219 3.70483 10.86 3.50368 10.9371 3.33324C11.0141 3.16281 11.1202 3.03306 11.2567 2.94323C11.3932 2.85341 11.5473 2.80811 11.7205 2.80811H11.9799V2.3705H11.6946C11.4833 2.3705 11.3002 2.42885 11.1446 2.54632Z" fill="#5EA3D6"/>
<path d="M14.4663 3.89292C14.4663 4.21461 14.3961 4.45798 14.255 4.62304C14.1138 4.7881 13.9109 4.87102 13.6455 4.87102C13.38 4.87102 13.1794 4.7881 13.0375 4.62151C12.8956 4.45491 12.8247 4.2123 12.8247 3.89292V2.3705H12.3456V3.90751C12.3456 4.23073 12.4006 4.4979 12.5096 4.7098C12.6187 4.92092 12.7713 5.07754 12.9666 5.17811C13.1619 5.27869 13.3899 5.32859 13.6516 5.32859C13.9132 5.32859 14.1321 5.27792 14.3267 5.17811C14.5212 5.07754 14.673 4.92092 14.7836 4.70903C14.8934 4.49636 14.9491 4.22996 14.9491 3.90828V2.37127H14.467V3.89369L14.4663 3.89292Z" fill="#5EA3D6"/>
<path d="M17.9817 2.98944C17.9238 2.85892 17.8398 2.74146 17.7315 2.63551C17.6224 2.52956 17.4935 2.44588 17.3432 2.38369C17.193 2.3215 17.0297 2.29003 16.8535 2.29003C16.5926 2.29003 16.3554 2.35682 16.1426 2.49117C15.9298 2.62553 15.7619 2.80518 15.6399 3.03089C15.5178 3.25661 15.4568 3.49998 15.4568 3.76024C15.4568 4.0205 15.5186 4.26464 15.6414 4.48575C15.7642 4.70686 15.9336 4.8819 16.1479 5.01165C16.363 5.1414 16.6026 5.20589 16.8673 5.20589C17.1152 5.20589 17.3379 5.14677 17.5355 5.02854C17.7338 4.91031 17.8818 4.74371 17.9817 4.52875V4.88574C17.9817 5.07614 17.9466 5.25042 17.8765 5.40704C17.8063 5.56365 17.6941 5.69033 17.5416 5.78707C17.3883 5.88303 17.1937 5.9314 16.9573 5.9314C16.6666 5.9314 16.4485 5.87075 16.3028 5.75021C16.1571 5.62968 16.0785 5.5245 16.0465 5.33026H15.5819C15.5934 5.51913 15.6445 5.6412 15.7429 5.80242C15.8413 5.96364 15.9923 6.09493 16.1945 6.19627C16.3974 6.29761 16.6514 6.34751 16.9573 6.34751C17.2799 6.34751 17.5538 6.28149 17.7781 6.1502C18.0023 6.01892 18.1701 5.84157 18.2807 5.61893C18.3914 5.39629 18.447 5.14677 18.447 4.87116V2.3691H17.9825V2.98944H17.9817ZM17.8284 4.26695C17.7376 4.42203 17.6148 4.54487 17.46 4.637C17.3051 4.72836 17.1358 4.77442 16.9519 4.77442C16.7681 4.77442 16.5957 4.72989 16.4408 4.6416C16.286 4.55255 16.1639 4.43124 16.0732 4.27616C15.9832 4.12108 15.9381 3.94911 15.9381 3.76024C15.9381 3.57138 15.9832 3.3971 16.0732 3.24356C16.1632 3.09001 16.286 2.96871 16.4416 2.87965C16.5972 2.79059 16.7681 2.74683 16.9542 2.74683C17.1403 2.74683 17.3074 2.79289 17.4622 2.88579C17.6171 2.97869 17.7391 3.10229 17.8299 3.25661C17.9199 3.41169 17.9649 3.57982 17.9649 3.76101C17.9649 3.9422 17.9192 4.1134 17.8284 4.26848V4.26695Z" fill="#5EA3D6"/>
<path d="M21.6107 3.37568C21.3567 3.20754 21.0287 3.09085 20.6282 3.02636C20.262 2.97645 19.9889 2.90045 19.8112 2.7968C19.6327 2.69393 19.5435 2.54345 19.5435 2.34691C19.5435 2.16189 19.6121 2.00834 19.7487 1.88857C19.8852 1.76804 20.1148 1.70815 20.4375 1.70815C20.6274 1.70815 20.7891 1.73579 20.9234 1.79107C21.0569 1.84635 21.1591 1.92466 21.2278 2.02446C21.2972 2.12503 21.3315 2.24019 21.3315 2.36994H21.8388C21.8388 2.15037 21.7854 1.9569 21.6778 1.79107C21.5703 1.62447 21.4116 1.49472 21.2026 1.40106C20.9928 1.3074 20.7396 1.26056 20.4436 1.26056C20.1209 1.26056 19.8547 1.30893 19.6464 1.40567C19.4374 1.5024 19.2841 1.63138 19.1865 1.79414C19.0888 1.9569 19.04 2.14039 19.04 2.34461C19.04 2.58951 19.1094 2.78682 19.249 2.93807C19.3886 3.08931 19.561 3.20217 19.7662 3.27741C19.9714 3.35264 20.2063 3.41253 20.4726 3.45629C20.7975 3.50619 21.047 3.58373 21.2217 3.68968C21.3963 3.79563 21.4833 3.95455 21.4833 4.16721C21.4833 4.40598 21.3956 4.58639 21.2201 4.70923C21.0447 4.8313 20.7907 4.89272 20.4581 4.89272C20.2529 4.89272 20.0736 4.85741 19.9195 4.78677C19.7654 4.71614 19.648 4.62171 19.5663 4.50271C19.4847 4.38448 19.4435 4.2555 19.4435 4.11577H18.9393C18.9393 4.32229 18.995 4.51807 19.1071 4.70309C19.2193 4.88811 19.3894 5.03859 19.6182 5.15452C19.8471 5.27045 20.1278 5.32803 20.4596 5.32803C20.7746 5.32803 21.0477 5.28196 21.2781 5.1906C21.5085 5.09924 21.6854 4.96566 21.8075 4.79061C21.9303 4.61557 21.9913 4.40828 21.9913 4.16721C21.9913 3.80791 21.8639 3.54458 21.6099 3.37644L21.6107 3.37568Z" fill="#5EA3D6"/>
<path d="M23.3906 1.48545L22.8948 1.48852V2.36758H22.2403V2.80596H22.8948V4.23088C22.8948 4.64853 22.981 4.93643 23.1542 5.09304C23.3273 5.24966 23.5493 5.32797 23.8201 5.32797H24.3624V4.90418H23.9185C23.7606 4.90418 23.6332 4.85812 23.5363 4.76599C23.4394 4.67386 23.3906 4.50342 23.3906 4.25391V2.80596H24.3624V2.36758H23.3906V1.48545Z" fill="#5EA3D6"/>
<path d="M26.9407 2.4948C26.7133 2.35968 26.4601 2.29212 26.1824 2.29212C25.9048 2.29212 25.6523 2.35968 25.4272 2.4948C25.2015 2.62992 25.0237 2.81418 24.894 3.0468C24.7644 3.27943 24.6995 3.53431 24.6995 3.80993C24.6995 4.08555 24.7644 4.34274 24.894 4.5746C25.0237 4.80645 25.2022 4.98994 25.4288 5.12506C25.6553 5.26018 25.9071 5.32775 26.1832 5.32775C26.4593 5.32775 26.7164 5.26018 26.943 5.12506C27.1695 4.98994 27.348 4.80645 27.4777 4.5746C27.6074 4.34274 27.6722 4.08785 27.6722 3.80993C27.6722 3.53201 27.6074 3.27712 27.4777 3.04527C27.348 2.81341 27.1695 2.62992 26.9422 2.4948H26.9407ZM27.0581 4.35349C26.9704 4.51471 26.8499 4.64139 26.6973 4.73352C26.544 4.82565 26.3747 4.87171 26.1878 4.87171C26.0009 4.87171 25.8308 4.82565 25.6774 4.73352C25.5234 4.64139 25.4021 4.51471 25.3136 4.35349C25.2251 4.19226 25.1809 4.01108 25.1809 3.80993C25.1809 3.60878 25.2251 3.43067 25.3136 3.26945C25.4021 3.10822 25.5234 2.98078 25.6774 2.88788C25.8315 2.79498 26.0016 2.74815 26.1878 2.74815C26.3739 2.74815 26.544 2.79498 26.6973 2.88788C26.8499 2.98078 26.9704 3.10822 27.0581 3.26945C27.1459 3.43067 27.1893 3.61109 27.1893 3.80993C27.1893 4.00878 27.1459 4.19226 27.0581 4.35349Z" fill="#5EA3D6"/>
<path d="M30.1632 4.72277C30.0084 4.82411 29.8321 4.87478 29.6346 4.87478C29.4668 4.87478 29.3073 4.83102 29.1578 4.7435C29.0075 4.65598 28.8863 4.5316 28.794 4.37038C28.7017 4.20915 28.6551 4.02183 28.6551 3.80993C28.6551 3.59804 28.7017 3.41378 28.794 3.25256C28.8863 3.09133 29.0075 2.96696 29.1578 2.87944C29.3081 2.79191 29.4668 2.74815 29.6346 2.74815C29.8321 2.74815 30.0084 2.79729 30.1632 2.89479C30.3181 2.99229 30.4317 3.13202 30.5049 3.31474H31C30.942 3.1159 30.8482 2.93932 30.7185 2.785C30.5889 2.63146 30.431 2.51015 30.2441 2.4234C30.0572 2.33588 29.8535 2.29212 29.6315 2.29212C29.3607 2.29212 29.1151 2.36045 28.8931 2.49634C28.6711 2.63222 28.4957 2.81648 28.3668 3.04834C28.2379 3.28019 28.1738 3.53431 28.1738 3.80993C28.1738 4.08555 28.2379 4.33967 28.3668 4.57153C28.4957 4.80338 28.6711 4.98764 28.8931 5.12353C29.1151 5.25942 29.3615 5.32775 29.6315 5.32775C29.8535 5.32775 30.0579 5.28398 30.2456 5.19646C30.4332 5.10894 30.5919 4.98687 30.7216 4.82872C30.8513 4.67133 30.9428 4.48861 30.997 4.28209H30.5042C30.4317 4.47326 30.3173 4.61989 30.1624 4.72123L30.1632 4.72277Z" fill="#5EA3D6"/>
</svg>
