<svg width="382" height="386" viewBox="0 0 382 386" fill="none" xmlns="http://www.w3.org/2000/svg">
<path d="M284.284 24.1117C256.674 7.82238 225.157 -0.509868 193.171 0.0241477C160.562 0.421631 128.377 9.85188 96.6156 28.315C65.2686 46.5594 41.3737 69.7624 24.9313 97.9241C8.58925 125.695 -0.022893 157.394 0.00152693 189.683C-0.136479 222.615 9.08037 255.288 27.652 287.702C45.9871 319.72 69.389 343.986 97.8577 360.501C125.662 376.866 157.337 385.353 189.533 385.066C223.203 384.626 256.157 375.216 285.053 357.789C316.4 339.544 340.443 316.112 357.181 287.494C373.709 259.568 382.293 227.596 381.992 195.079C381.815 162.088 372.559 129.574 354.224 97.5367C335.77 65.0425 312.457 40.5674 284.284 24.1117ZM332.724 198.269C333.485 222.394 327.577 246.257 315.661 267.192C302.982 288.829 284.785 306.648 262.962 318.795C241.966 331.44 217.983 338.164 193.525 338.262C169.516 338.181 145.988 331.458 125.508 318.825C103.979 305.907 86.0483 286.927 71.7154 261.886C57.1656 236.467 49.7724 211.227 49.5358 186.165C49.08 162.023 55.1415 138.21 67.0724 117.272C79.9002 96.065 97.8052 78.4447 119.145 66.0273C140.484 53.6099 164.575 46.793 189.208 46.2017C213.098 46.2277 236.515 52.9133 256.87 65.5193C278.044 78.3381 295.916 97.4769 310.486 122.936C324.759 148.037 332.172 173.148 332.724 198.269Z" fill="#5EA3D6" fill-opacity="0.3"/>
<path d="M245.294 140.509L119.226 213.934C117.193 215.108 115.409 216.675 113.977 218.544C112.544 220.413 111.491 222.549 110.877 224.829C110.264 227.108 110.101 229.487 110.4 231.83C110.698 234.173 111.451 236.434 112.616 238.483C113.781 240.533 115.335 242.331 117.19 243.775C119.044 245.219 121.163 246.28 123.424 246.899C125.685 247.518 128.046 247.681 130.37 247.381C132.694 247.08 134.936 246.321 136.969 245.146L263.186 171.811C265.219 170.636 267.002 169.069 268.435 167.2C269.867 165.331 270.921 163.195 271.534 160.916C272.148 158.636 272.31 156.257 272.012 153.914C271.714 151.571 270.96 149.311 269.795 147.261C268.63 145.212 267.076 143.413 265.222 141.97C263.367 140.526 261.249 139.464 258.988 138.845C254.421 137.596 249.548 138.226 245.442 140.598L245.294 140.509Z" fill="#5EA3D6" fill-opacity="0.3"/>
</svg>
