<svg width="36" height="34" viewBox="0 0 36 34" fill="none" xmlns="http://www.w3.org/2000/svg">
<path d="M9.00006 24.8706L10.2915 20.3354C9.24999 18.5687 8.91909 16.5072 9.35953 14.529C9.79997 12.5508 10.9822 10.7888 12.6893 9.56618C14.3964 8.34358 16.5139 7.74242 18.6531 7.87303C20.7924 8.00364 22.8099 8.85726 24.3355 10.2772C25.8612 11.6972 26.7925 13.5883 26.9587 15.6035C27.1249 17.6187 26.5148 19.6228 25.2403 21.2481C23.9658 22.8734 22.1125 24.0108 20.0204 24.4516C17.9282 24.8925 15.7377 24.6072 13.8507 23.6481L9.00006 24.8706ZM14.0845 21.951L14.3845 22.1188C15.7513 22.8827 17.3478 23.1988 18.925 23.0178C20.5022 22.8369 21.9717 22.1691 23.1044 21.1185C24.2371 20.068 24.9694 18.6936 25.1872 17.2096C25.405 15.7256 25.096 14.2154 24.3084 12.9143C23.5209 11.6132 22.2989 10.5942 20.8331 10.0163C19.3672 9.43832 17.7397 9.3338 16.2043 9.719C14.6688 10.1042 13.3117 10.9575 12.3442 12.1459C11.3768 13.3343 10.8535 14.7911 10.8559 16.2892C10.8546 17.5314 11.219 18.7495 11.9084 19.8081L12.0965 20.1005L11.3745 22.6318L14.0845 21.951Z" fill="#1F1C19"/>
<path fill-rule="evenodd" clip-rule="evenodd" d="M21.3644 17.4537C21.1885 17.32 20.9826 17.2258 20.7623 17.1785C20.5421 17.1311 20.3132 17.1318 20.0933 17.1804C19.7628 17.3099 19.5492 17.7989 19.3357 18.0434C19.2906 18.102 19.2245 18.1431 19.1496 18.159C19.0747 18.1748 18.9962 18.1644 18.9289 18.1297C17.719 17.6828 16.7048 16.8634 16.0511 15.8045C15.9953 15.7385 15.9689 15.6546 15.9775 15.5705C15.986 15.4864 16.0288 15.4088 16.0969 15.3539C16.335 15.1316 16.5099 14.8562 16.6053 14.5533C16.6265 14.2191 16.5453 13.8863 16.3714 13.5945C16.237 13.1853 15.9812 12.821 15.6342 12.5446C15.4552 12.4687 15.2567 12.4432 15.0628 12.4713C14.8688 12.4994 14.6876 12.5798 14.541 12.7028C14.2865 12.9098 14.0845 13.168 13.9499 13.4584C13.8152 13.7488 13.7514 14.064 13.7631 14.3807C13.7639 14.5586 13.7878 14.7357 13.8343 14.908C13.9523 15.3222 14.1339 15.7179 14.3732 16.0826C14.5459 16.362 14.7343 16.6324 14.9376 16.8928C15.5983 17.748 16.4289 18.4742 17.3832 19.0309C17.8621 19.3139 18.3739 19.5439 18.9086 19.7165C19.464 19.9539 20.0772 20.045 20.6831 19.9802C21.0283 19.9309 21.3554 19.8024 21.6355 19.6059C21.9157 19.4095 22.1404 19.1511 22.2898 18.8536C22.3775 18.6738 22.4042 18.4729 22.366 18.2783C22.2745 17.8804 21.7101 17.6455 21.3644 17.4537Z" fill="#1F1C19"/>
</svg>
