<svg width="20" height="20" viewBox="0 0 20 20" fill="none" xmlns="http://www.w3.org/2000/svg">
<g clip-path="url(#clip0_0_15)">
<path d="M7.33426 0.273693C7.32254 0.304943 7.26004 0.621349 7.18973 0.976818C6.59207 4.00416 5.92411 5.30885 4.54129 6.14479C3.76786 6.61354 2.53348 7.01197 0.822543 7.34401C0.467074 7.41041 0.150668 7.47682 0.119418 7.48854C0.088168 7.50026 0.388949 7.57838 0.791293 7.65651C3.29129 8.16041 4.51004 8.65651 5.36942 9.51588C6.17801 10.3245 6.71317 11.6448 7.1702 13.9338C7.24442 14.3167 7.31864 14.6721 7.33036 14.7268C7.34598 14.7893 7.41239 14.5432 7.52176 14.0042C8.03348 11.4885 8.48661 10.3753 9.35379 9.50807C10.221 8.64479 11.2991 8.20338 13.8264 7.67604C14.2679 7.58619 14.6038 7.50026 14.5725 7.48854C14.5413 7.47682 14.1897 7.4026 13.7913 7.32447C11.4827 6.86744 10.178 6.33619 9.35379 5.51197C8.51395 4.67604 8.03739 3.51979 7.54129 1.11354C7.43973 0.617443 7.34598 0.242443 7.33426 0.273693Z" fill="white"/>
<path d="M15.301 10.664C14.8752 12.6718 14.6525 13.2617 14.1017 13.8476C13.5666 14.4101 12.8908 14.6992 11.2932 15.039C10.9846 15.1054 10.7267 15.164 10.7189 15.1718C10.7111 15.1797 10.9494 15.2304 11.2424 15.289C12.676 15.5703 13.508 15.9062 14.0353 16.4179C14.5744 16.9453 14.8869 17.6797 15.1838 19.1172C15.258 19.4804 15.3244 19.7851 15.3283 19.7929C15.3361 19.7968 15.4064 19.4804 15.4885 19.0898C15.8166 17.5078 16.2189 16.6718 16.8869 16.1992C17.4377 15.8086 18.0978 15.5664 19.2502 15.3281C19.6408 15.2461 19.9572 15.1757 19.9533 15.1679C19.9455 15.164 19.6408 15.0976 19.2775 15.0234C17.84 14.7265 17.1057 14.414 16.5783 13.875C16.0705 13.3515 15.7541 12.582 15.4728 11.1836C15.3283 10.4804 15.3361 10.4961 15.301 10.664Z" fill="white"/>
</g>
<defs>
<clipPath id="clip0_0_15">
<rect width="20" height="20" fill="white"/>
</clipPath>
</defs>
</svg>
