<svg width="36" height="34" viewBox="0 0 36 34" fill="none" xmlns="http://www.w3.org/2000/svg">
<path d="M26.9348 11.6172C26.3404 11.859 25.7155 12.0274 25.0755 12.1182C25.3747 12.0697 25.8149 11.5606 25.9902 11.3546C26.2564 11.0437 26.4593 10.6889 26.5886 10.3081C26.5886 10.2798 26.6185 10.2394 26.5886 10.2192C26.5735 10.2115 26.5566 10.2074 26.5394 10.2074C26.5222 10.2074 26.5054 10.2115 26.4903 10.2192C25.7954 10.575 25.0558 10.8464 24.2891 11.0273C24.2623 11.035 24.2339 11.0357 24.2068 11.0293C24.1797 11.0229 24.1549 11.0096 24.1352 10.9909C24.0755 10.9238 24.0113 10.8603 23.9428 10.801C23.6301 10.5362 23.2753 10.3194 22.8914 10.1586C22.3732 9.95765 21.8134 9.87061 21.2544 9.90409C20.7119 9.93647 20.1824 10.074 19.6986 10.3081C19.2221 10.555 18.8034 10.8903 18.4676 11.294C18.1143 11.7095 17.8593 12.1916 17.7196 12.7081C17.6044 13.1993 17.5914 13.707 17.6811 14.203C17.6811 14.2879 17.6811 14.3 17.6042 14.2879C14.5567 13.8636 12.0563 12.8414 10.0132 10.6475C9.92345 10.5505 9.87643 10.5505 9.80377 10.6475C8.91474 11.9243 9.34643 13.9444 10.4577 14.9424C10.6073 15.0757 10.7612 15.205 10.9236 15.3262C10.4141 15.292 9.91702 15.1615 9.46184 14.9424C9.37635 14.8899 9.32934 14.9181 9.32506 15.0151C9.31294 15.1495 9.31294 15.2847 9.32506 15.4191C9.41424 16.0634 9.68284 16.6737 10.1034 17.1877C10.5239 17.7017 11.0814 18.1008 11.7186 18.3444C11.874 18.4073 12.0358 18.4546 12.2016 18.4858C11.7299 18.5735 11.2461 18.5872 10.7697 18.5262C10.6672 18.506 10.6287 18.5585 10.6672 18.6514C11.2955 20.2676 12.6589 20.7605 13.6591 21.0352C13.7959 21.0554 13.9327 21.0554 14.0865 21.0877C14.0865 21.0877 14.0865 21.0877 14.0609 21.112C13.766 21.6211 12.5735 21.9645 12.0264 22.1423C11.0278 22.4813 9.96308 22.6109 8.90619 22.5221C8.73949 22.4978 8.70103 22.5019 8.65828 22.5221C8.61554 22.5423 8.65828 22.5867 8.7053 22.6271C8.91901 22.7604 9.13272 22.8776 9.35498 22.9907C10.0166 23.3319 10.7162 23.6029 11.4408 23.7988C15.1935 24.7766 19.4165 24.0574 22.2332 21.411C24.4472 19.3342 25.2251 16.4696 25.2251 13.601C25.2251 13.4919 25.3662 13.4273 25.4474 13.3707C26.0075 12.9581 26.5013 12.4709 26.9134 11.9243C26.9848 11.8428 27.0214 11.739 27.016 11.6334C27.016 11.5727 27.016 11.5849 26.9348 11.6172Z" fill="#1F1C19"/>
</svg>
