<svg width="35" height="34" viewBox="0 0 35 34" fill="none" xmlns="http://www.w3.org/2000/svg">
<path d="M14.5874 17.0436C14.5874 15.4774 15.8936 14.2075 17.5053 14.2075C19.117 14.2075 20.424 15.4774 20.424 17.0436C20.424 18.6097 19.117 19.8796 17.5053 19.8796C15.8936 19.8796 14.5874 18.6097 14.5874 17.0436ZM13.0096 17.0436C13.0096 19.4563 15.0223 21.4121 17.5053 21.4121C19.9883 21.4121 22.001 19.4563 22.001 17.0436C22.001 14.6308 19.9883 12.675 17.5053 12.675C15.0223 12.675 13.0096 14.6308 13.0096 17.0436ZM21.1284 12.5018C21.1283 12.7037 21.1898 12.9011 21.3052 13.0691C21.4206 13.237 21.5846 13.3679 21.7766 13.4453C21.9685 13.5226 22.1797 13.5429 22.3836 13.5036C22.5874 13.4643 22.7746 13.3671 22.9216 13.2244C23.0686 13.0817 23.1687 12.8998 23.2094 12.7018C23.25 12.5038 23.2293 12.2985 23.1498 12.1119C23.0704 11.9253 22.9358 11.7659 22.7631 11.6536C22.5903 11.5414 22.3872 11.4814 22.1794 11.4813H22.179C21.9005 11.4815 21.6334 11.589 21.4364 11.7803C21.2394 11.9717 21.1286 12.2312 21.1284 12.5018ZM13.9682 23.9685C13.1146 23.9307 12.6506 23.7926 12.3423 23.6759C11.9335 23.5212 11.6419 23.337 11.3352 23.0395C11.0286 22.7419 10.8388 22.4588 10.6803 22.0616C10.5602 21.7621 10.418 21.3112 10.3792 20.4817C10.3367 19.5849 10.3282 19.3156 10.3282 17.0436C10.3282 14.7717 10.3374 14.5031 10.3792 13.6056C10.418 12.7761 10.5613 12.326 10.6803 12.0257C10.8395 11.6285 11.029 11.3451 11.3352 11.0471C11.6415 10.7491 11.9328 10.5647 12.3423 10.4107C12.6505 10.2939 13.1146 10.1558 13.9682 10.1181C14.8911 10.0768 15.1683 10.0686 17.5053 10.0686C19.8423 10.0686 20.1198 10.0775 21.0435 10.1181C21.8971 10.1558 22.3603 10.295 22.6694 10.4107C23.0781 10.5647 23.3698 10.7495 23.6764 11.0471C23.9831 11.3447 24.1722 11.6285 24.3313 12.0257C24.4515 12.3251 24.5937 12.7761 24.6325 13.6056C24.6749 14.5031 24.6834 14.7717 24.6834 17.0436C24.6834 19.3156 24.6749 19.5842 24.6325 20.4817C24.5936 21.3112 24.4507 21.762 24.3313 22.0616C24.1722 22.4588 23.9827 22.7422 23.6764 23.0395C23.3702 23.3368 23.0781 23.5212 22.6694 23.6759C22.3612 23.7926 21.8971 23.9308 21.0435 23.9685C20.1206 24.0098 19.8434 24.018 17.5053 24.018C15.1672 24.018 14.8908 24.0098 13.9682 23.9685ZM13.8957 8.58753C12.9636 8.62878 12.3268 8.77238 11.7706 8.98269C11.1945 9.19987 10.7069 9.49124 10.2196 9.96399C9.73233 10.4367 9.43325 10.9113 9.20975 11.471C8.99332 12.0119 8.84553 12.6304 8.80308 13.5361C8.75994 14.4432 8.75006 14.7332 8.75006 17.0436C8.75006 19.3539 8.75994 19.644 8.80308 20.5511C8.84553 21.4568 8.99332 22.0753 9.20975 22.6161C9.43325 23.1755 9.7324 23.6506 10.2196 24.1231C10.7068 24.5957 11.1945 24.8867 11.7706 25.1044C12.3278 25.3147 12.9636 25.4584 13.8957 25.4996C14.8297 25.5408 15.1277 25.5511 17.5053 25.5511C19.883 25.5511 20.1814 25.5415 21.1149 25.4996C22.047 25.4584 22.6835 25.3147 23.2401 25.1044C23.8157 24.8867 24.3037 24.5959 24.791 24.1231C25.2783 23.6504 25.5767 23.1755 25.8009 22.6161C26.0173 22.0753 26.1658 21.4567 26.2075 20.5511C26.25 19.6433 26.2599 19.3539 26.2599 17.0436C26.2599 14.7332 26.25 14.4432 26.2075 13.5361C26.1651 12.6303 26.0173 12.0115 25.8009 11.471C25.5767 10.9117 25.2775 10.4375 24.791 9.96399C24.3045 9.49049 23.8157 9.19987 23.2408 8.98269C22.6835 8.77238 22.047 8.6281 21.1156 8.58753C20.1821 8.54629 19.8837 8.53601 17.506 8.53601C15.1284 8.53601 14.8297 8.54561 13.8957 8.58753Z" fill="#1F1C19"/>
<path d="M14.5874 17.0436C14.5874 15.4774 15.8936 14.2075 17.5053 14.2075C19.117 14.2075 20.424 15.4774 20.424 17.0436C20.424 18.6097 19.117 19.8796 17.5053 19.8796C15.8936 19.8796 14.5874 18.6097 14.5874 17.0436ZM13.0096 17.0436C13.0096 19.4563 15.0223 21.4121 17.5053 21.4121C19.9883 21.4121 22.001 19.4563 22.001 17.0436C22.001 14.6308 19.9883 12.675 17.5053 12.675C15.0223 12.675 13.0096 14.6308 13.0096 17.0436ZM21.1284 12.5018C21.1283 12.7037 21.1898 12.9011 21.3052 13.0691C21.4206 13.237 21.5846 13.3679 21.7766 13.4453C21.9685 13.5226 22.1797 13.5429 22.3836 13.5036C22.5874 13.4643 22.7746 13.3671 22.9216 13.2244C23.0686 13.0817 23.1687 12.8998 23.2094 12.7018C23.25 12.5038 23.2293 12.2985 23.1498 12.1119C23.0704 11.9253 22.9358 11.7659 22.7631 11.6536C22.5903 11.5414 22.3872 11.4814 22.1794 11.4813H22.179C21.9005 11.4815 21.6334 11.589 21.4364 11.7803C21.2394 11.9717 21.1286 12.2312 21.1284 12.5018ZM13.9682 23.9685C13.1146 23.9307 12.6506 23.7926 12.3423 23.6759C11.9335 23.5212 11.6419 23.337 11.3352 23.0395C11.0286 22.7419 10.8388 22.4588 10.6803 22.0616C10.5602 21.7621 10.418 21.3112 10.3792 20.4817C10.3367 19.5849 10.3282 19.3156 10.3282 17.0436C10.3282 14.7717 10.3374 14.5031 10.3792 13.6056C10.418 12.7761 10.5613 12.326 10.6803 12.0257C10.8395 11.6285 11.029 11.3451 11.3352 11.0471C11.6415 10.7491 11.9328 10.5647 12.3423 10.4107C12.6505 10.2939 13.1146 10.1558 13.9682 10.1181C14.8911 10.0768 15.1683 10.0686 17.5053 10.0686C19.8423 10.0686 20.1198 10.0775 21.0435 10.1181C21.8971 10.1558 22.3603 10.295 22.6694 10.4107C23.0781 10.5647 23.3698 10.7495 23.6764 11.0471C23.9831 11.3447 24.1722 11.6285 24.3313 12.0257C24.4515 12.3251 24.5937 12.7761 24.6325 13.6056C24.6749 14.5031 24.6834 14.7717 24.6834 17.0436C24.6834 19.3156 24.6749 19.5842 24.6325 20.4817C24.5936 21.3112 24.4507 21.762 24.3313 22.0616C24.1722 22.4588 23.9827 22.7422 23.6764 23.0395C23.3702 23.3368 23.0781 23.5212 22.6694 23.6759C22.3612 23.7926 21.8971 23.9308 21.0435 23.9685C20.1206 24.0098 19.8434 24.018 17.5053 24.018C15.1672 24.018 14.8908 24.0098 13.9682 23.9685ZM13.8957 8.58753C12.9636 8.62878 12.3268 8.77238 11.7706 8.98269C11.1945 9.19987 10.7069 9.49124 10.2196 9.96399C9.73233 10.4367 9.43325 10.9113 9.20975 11.471C8.99332 12.0119 8.84553 12.6304 8.80308 13.5361C8.75994 14.4432 8.75006 14.7332 8.75006 17.0436C8.75006 19.3539 8.75994 19.644 8.80308 20.5511C8.84553 21.4568 8.99332 22.0753 9.20975 22.6161C9.43325 23.1755 9.7324 23.6506 10.2196 24.1231C10.7068 24.5957 11.1945 24.8867 11.7706 25.1044C12.3278 25.3147 12.9636 25.4584 13.8957 25.4996C14.8297 25.5408 15.1277 25.5511 17.5053 25.5511C19.883 25.5511 20.1814 25.5415 21.1149 25.4996C22.047 25.4584 22.6835 25.3147 23.2401 25.1044C23.8157 24.8867 24.3037 24.5959 24.791 24.1231C25.2783 23.6504 25.5767 23.1755 25.8009 22.6161C26.0173 22.0753 26.1658 21.4567 26.2075 20.5511C26.25 19.6433 26.2599 19.3539 26.2599 17.0436C26.2599 14.7332 26.25 14.4432 26.2075 13.5361C26.1651 12.6303 26.0173 12.0115 25.8009 11.471C25.5767 10.9117 25.2775 10.4375 24.791 9.96399C24.3045 9.49049 23.8157 9.19987 23.2408 8.98269C22.6835 8.77238 22.047 8.6281 21.1156 8.58753C20.1821 8.54629 19.8837 8.53601 17.506 8.53601C15.1284 8.53601 14.8297 8.54561 13.8957 8.58753Z" fill="#1F1C19"/>
</svg>
