<svg width="10" height="10" viewBox="0 0 10 10" fill="none" xmlns="http://www.w3.org/2000/svg">
<g clip-path="url(#clip0_12_154)">
<path d="M4.99999 3.33332C5.45832 3.33332 5.83332 2.95832 5.83332 2.49998C5.83332 2.04165 5.45832 1.66665 4.99999 1.66665C4.54166 1.66665 4.16666 2.04165 4.16666 2.49998C4.16666 2.95832 4.54166 3.33332 4.99999 3.33332ZM4.99999 4.16665C4.54166 4.16665 4.16666 4.54165 4.16666 4.99998C4.16666 5.45832 4.54166 5.83331 4.99999 5.83331C5.45832 5.83331 5.83332 5.45832 5.83332 4.99998C5.83332 4.54165 5.45832 4.16665 4.99999 4.16665ZM4.99999 6.66665C4.54166 6.66665 4.16666 7.04165 4.16666 7.49998C4.16666 7.95831 4.54166 8.33331 4.99999 8.33331C5.45832 8.33331 5.83332 7.95831 5.83332 7.49998C5.83332 7.04165 5.45832 6.66665 4.99999 6.66665Z" fill="#1C1B1F"/>
</g>
<defs>
<clipPath id="clip0_12_154">
<rect width="9.21762" height="9.21762" fill="white" transform="scale(1.08488)"/>
</clipPath>
</defs>
</svg>
