<svg width="228" height="76" viewBox="0 0 228 76" fill="none" xmlns="http://www.w3.org/2000/svg">
<path d="M36.3053 33.9548C34.8322 33.1354 33.1722 32.7186 31.4899 32.7459C29.9407 32.7224 28.4122 33.1074 27.0561 33.8629C25.8945 34.5265 24.9211 35.4792 24.2289 36.6302V32.9267H21.7969V58.8724H24.3383V48.2661C25.0318 49.3617 25.9771 50.2726 27.0941 50.9215C28.4377 51.687 29.9589 52.0788 31.5021 52.0569C33.1865 52.0845 34.848 51.6616 36.3174 50.8311C37.7193 50.0304 38.876 48.8569 39.6614 47.4387C40.4721 45.9953 40.8774 44.3098 40.8774 42.3822C40.8774 40.4822 40.4721 38.8044 39.6614 37.3488C38.8799 35.9231 37.7171 34.7472 36.3053 33.9548ZM37.3921 46.2604C36.8093 47.3439 35.9422 48.2451 34.8856 48.8652C33.7957 49.4896 32.5594 49.8072 31.306 49.7846C30.0475 49.8054 28.8062 49.4881 27.7097 48.8652C26.6476 48.2521 25.7788 47.3492 25.2032 46.2604C24.5952 45.1418 24.2912 43.8486 24.2912 42.3807C24.2912 40.9128 24.5952 39.6257 25.2032 38.5194C25.7869 37.4386 26.6539 36.5401 27.7097 35.9223C28.8041 35.2864 30.0491 34.9618 31.3121 34.983C32.5491 34.9571 33.7696 35.273 34.8414 35.8964C35.9131 36.5198 36.7952 37.4269 37.3921 38.5194C38.0122 39.6278 38.3223 40.9149 38.3223 42.3807C38.3223 43.8466 38.0122 45.1398 37.3921 46.2604Z" fill="#131313"/>
<path d="M48.6 32.9268H46.0586V51.8716H48.6V32.9268Z" fill="#131313"/>
<path d="M47.3466 25.0953C47.1022 25.0895 46.8592 25.1328 46.6316 25.2228C46.404 25.3128 46.1965 25.4476 46.0212 25.6194C45.8481 25.7833 45.7109 25.982 45.6185 26.2026C45.526 26.4232 45.4805 26.6609 45.4846 26.9003C45.4815 27.1423 45.5275 27.3824 45.6198 27.6059C45.712 27.8293 45.8486 28.0314 46.0212 28.1997C46.3799 28.5468 46.8578 28.7407 47.355 28.7407C47.8522 28.7407 48.3301 28.5468 48.6888 28.1997C48.859 28.0229 48.9925 27.8137 49.0815 27.5843C49.1705 27.3548 49.2132 27.1098 49.2071 26.8636C49.2126 26.6267 49.1675 26.3913 49.0749 26.1735C48.9824 25.9557 48.8445 25.7604 48.6706 25.601C48.3119 25.2643 47.8366 25.0828 47.3466 25.0953Z" fill="#5FA3D7"/>
<path d="M58.2289 25.0952H55.6875V51.8699H58.2289V25.0952Z" fill="#131313"/>
<path d="M67.8578 25.0952H65.3164V51.8699H67.8578V25.0952Z" fill="#131313"/>
<path d="M125.152 33.0966C123.972 32.4837 122.617 32.1772 121.089 32.1772C119.251 32.1772 117.622 32.6226 116.202 33.5134C115.419 34.0008 114.726 34.6232 114.155 35.3521C113.721 34.6306 113.138 34.0119 112.445 33.5379C111.12 32.6349 109.574 32.1834 107.809 32.1834C106.343 32.1566 104.894 32.5107 103.603 33.2115C102.905 33.6004 102.281 34.1109 101.759 34.7193V32.4577H96.4258V51.8714H102.01V42.1277C102.01 40.9734 102.189 40.0234 102.547 39.2777C102.863 38.5729 103.388 37.9841 104.05 37.5923C104.716 37.2133 105.47 37.0203 106.234 37.033C107.402 37.033 108.302 37.4058 108.935 38.1515C109.569 38.8972 109.885 40.052 109.885 41.616V51.8637H115.468V42.1277C115.468 40.9734 115.648 40.0234 116.006 39.2777C116.323 38.5729 116.848 37.9841 117.51 37.5923C118.175 37.2133 118.928 37.0202 119.692 37.033C120.863 37.033 121.77 37.4058 122.413 38.1515C123.057 38.8972 123.379 40.052 123.38 41.616V51.8637H128.964V40.7579C128.964 38.7854 128.624 37.1678 127.944 35.9052C127.321 34.7029 126.346 33.7225 125.152 33.0966Z" fill="#131313"/>
<path d="M148.058 33.3772C146.483 32.5567 144.73 32.1414 142.957 32.1682C141 32.1682 139.245 32.5952 137.695 33.4492C136.177 34.2717 134.909 35.4939 134.026 36.9856C133.13 38.4903 132.683 40.2167 132.684 42.1647C132.684 44.0892 133.14 45.8033 134.052 47.3069C134.98 48.8308 136.313 50.0618 137.9 50.8602C139.559 51.7265 141.484 52.1596 143.676 52.1596C145.418 52.1596 146.957 51.8889 148.294 51.3475C149.571 50.8484 150.712 50.0507 151.623 49.02L148.654 45.7731C148.042 46.377 147.32 46.8547 146.526 47.1797C145.661 47.5105 144.741 47.6713 143.816 47.6532C142.785 47.6783 141.762 47.4622 140.828 47.0219C140 46.6243 139.311 45.9833 138.852 45.1832C138.597 44.7395 138.411 44.2589 138.302 43.7582H152.865C152.889 43.5177 152.912 43.2587 152.938 42.9829C152.963 42.7071 152.973 42.4589 152.973 42.2428C152.973 40.1497 152.531 38.3514 151.647 36.8477C150.799 35.3734 149.555 34.1704 148.058 33.3772ZM140.469 37.0546C141.24 36.6232 142.111 36.4054 142.992 36.4233C143.869 36.4037 144.734 36.6217 145.499 37.0546C146.209 37.4704 146.792 38.0766 147.181 38.806C147.457 39.3223 147.639 39.8844 147.718 40.4654H138.238C138.32 39.8911 138.5 39.3354 138.77 38.8228C139.158 38.0837 139.748 37.4714 140.469 37.0576V37.0546Z" fill="#131313"/>
<path d="M165.367 47.6856C164.626 47.6856 164.042 47.4629 163.613 47.0175C163.184 46.5721 162.97 45.9409 162.97 45.1237V37.2203H167.766V32.8901H162.97V28.1631H157.386V32.8901H154.414V37.2203H157.386V45.2018C157.386 47.5104 158.018 49.247 159.283 50.4115C160.547 51.576 162.313 52.1593 164.58 52.1613C165.419 52.1636 166.254 52.0606 167.068 51.8549C167.805 51.68 168.503 51.3682 169.126 50.9355L167.623 46.967C166.973 47.4564 166.178 47.7097 165.367 47.6856Z" fill="#131313"/>
<path d="M185.609 33.3772C184.034 32.5567 182.281 32.1414 180.508 32.1682C178.552 32.1682 176.798 32.5952 175.246 33.4492C173.728 34.2717 172.46 35.4939 171.577 36.9856C170.683 38.4903 170.235 40.2167 170.234 42.1647C170.234 44.0892 170.69 45.8033 171.602 47.3069C172.531 48.8304 173.864 50.0613 175.451 50.8602C177.11 51.7265 179.035 52.1596 181.227 52.1596C182.969 52.1596 184.508 51.8889 185.845 51.3475C187.122 50.8484 188.263 50.0507 189.174 49.02L186.199 45.7731C185.587 46.3773 184.864 46.8551 184.071 47.1797C183.208 47.508 182.291 47.6672 181.368 47.6486C180.337 47.6733 179.315 47.4572 178.38 47.0173C177.552 46.6197 176.863 45.9787 176.404 45.1786C176.149 44.7349 175.963 44.2543 175.854 43.7536H190.417C190.441 43.513 190.466 43.2541 190.49 42.9783C190.514 42.7025 190.525 42.4543 190.525 42.2382C190.525 40.1451 190.084 38.3468 189.201 36.8431C188.351 35.3702 187.106 34.1688 185.609 33.3772ZM178.02 37.0546C178.791 36.623 179.662 36.4052 180.545 36.4233C181.421 36.4039 182.286 36.6219 183.05 37.0546C183.76 37.4704 184.343 38.0766 184.732 38.806C185.008 39.3225 185.19 39.8844 185.27 40.4654H175.788C175.871 39.8911 176.051 39.3354 176.32 38.8228C176.709 38.0837 177.299 37.4714 178.02 37.0576V37.0546Z" fill="#131313"/>
<path d="M201.595 33.2334C200.805 33.6698 200.121 34.2761 199.59 35.0093V32.4581H194.258V51.8718H199.842V42.7058C199.842 40.8538 200.313 39.4886 201.256 38.6101C202.198 37.7316 203.434 37.2928 204.962 37.2939C205.176 37.2939 205.378 37.2939 205.57 37.3107C205.761 37.3276 205.975 37.3414 206.214 37.3659V32.1685C204.4 32.1685 202.861 32.5234 201.595 33.2334Z" fill="#131313"/>
<path d="M86.9165 33.7803C85.4974 32.9431 83.8775 32.5148 82.2334 32.5423C80.5574 32.5627 78.9031 33.0474 77.2706 33.9964C75.6594 34.9341 74.4312 36.1267 73.5861 37.5742C72.7462 39.0016 72.3035 40.6308 72.3048 42.2905C72.2977 43.9831 72.7714 45.6625 73.726 47.3285C74.6684 48.9742 75.8712 50.2214 77.3344 51.0703C78.7636 51.9115 80.3916 52.3477 82.0464 52.3329C83.777 52.3103 85.4708 51.8266 86.956 50.9309C88.5672 49.9931 89.803 48.7888 90.6633 47.3178C91.5129 45.8825 91.9541 44.2391 91.9386 42.5678C91.9295 40.8721 91.4537 39.2009 90.5113 37.5543C89.5629 35.8841 88.3646 34.6261 86.9165 33.7803ZM89.4063 42.7318C89.4454 43.9718 89.1417 45.1983 88.5292 46.2744C87.8776 47.3865 86.9423 48.3023 85.8206 48.9267C84.7414 49.5766 83.5088 49.9222 82.2516 49.9273C81.0176 49.9231 79.8083 49.5775 78.7556 48.9282C77.6491 48.2642 76.7275 47.2887 75.9908 46.0016C75.2429 44.6951 74.8629 43.3978 74.8508 42.1097C74.8273 40.8688 75.1389 39.6448 75.7521 38.5686C76.4115 37.4786 77.3317 36.573 78.4286 35.9347C79.5254 35.2965 80.7636 34.9461 82.0297 34.9157C83.2576 34.9171 84.4612 35.2607 85.5075 35.9086C86.5958 36.5675 87.5144 37.5512 88.2632 38.8598C88.9969 40.1499 89.3779 41.4406 89.4063 42.7318Z" fill="#131313"/>
<path d="M84.9135 39.7623L78.4338 43.5363C78.3293 43.5966 78.2376 43.6772 78.164 43.7732C78.0904 43.8693 78.0362 43.9791 78.0047 44.0962C77.9731 44.2134 77.9648 44.3357 77.9801 44.4561C77.9955 44.5765 78.0342 44.6927 78.0941 44.7981C78.1539 44.9034 78.2338 44.9958 78.3291 45.0701C78.4244 45.1443 78.5333 45.1988 78.6496 45.2306C78.7658 45.2624 78.8871 45.2709 79.0066 45.2554C79.126 45.2399 79.2413 45.2009 79.3458 45.1405L85.8331 41.3712C85.9376 41.3108 86.0293 41.2303 86.1029 41.1342C86.1766 41.0381 86.2307 40.9284 86.2622 40.8112C86.2938 40.694 86.3021 40.5717 86.2868 40.4513C86.2715 40.3309 86.2327 40.2147 86.1729 40.1094C86.113 40.004 86.0331 39.9116 85.9378 39.8374C85.8425 39.7632 85.7336 39.7086 85.6174 39.6768C85.3826 39.6126 85.1322 39.645 84.9211 39.7669L84.9135 39.7623Z" fill="#5FA3D7"/>
</svg>
