<svg width="1232" height="378" viewBox="0 0 1232 378" fill="none" xmlns="http://www.w3.org/2000/svg">
<g clip-path="url(#clip0_51915_45191)">
<rect width="1232" height="378" rx="35" fill="url(#paint0_linear_51915_45191)"/>
<path opacity="0.010101" d="M885.222 251.163C879.478 245.345 878.204 236.48 882.086 229.338L1001.55 9.56455C1005.31 2.64047 1013.08 -1.10608 1020.88 0.239704L1272.02 43.5579C1279.98 44.9298 1286.16 51.2775 1287.3 59.2524L1322.67 305.402C1323.81 313.377 1319.66 321.145 1312.4 324.608L1083.19 433.964C1076.07 437.362 1067.55 435.855 1061.98 430.214L885.222 251.163Z" stroke="url(#paint1_linear_51915_45191)" stroke-width="3"/>
<path opacity="0.020202" d="M882.29 248.082C876.65 242.165 875.534 233.277 879.544 226.201L1002.65 8.94508C1006.54 2.08697 1014.37 -1.52588 1022.15 -0.0473865L1271.97 47.4557C1279.9 48.9631 1285.97 55.4163 1286.97 63.4108L1317.87 309.619C1318.88 317.613 1314.59 325.31 1307.27 328.649L1076.61 433.862C1069.43 437.137 1060.94 435.485 1055.47 429.75L882.29 248.082Z" stroke="url(#paint2_linear_51915_45191)" stroke-width="3"/>
<path opacity="0.030303" d="M879.434 245.003C873.899 238.99 872.942 230.082 877.078 223.075L1003.79 8.39368C1007.79 1.60357 1015.69 -1.87459 1023.43 -0.263864L1271.87 51.3923C1279.77 53.0347 1285.72 59.5914 1286.58 67.6028L1313.03 313.793C1313.89 321.804 1309.47 329.428 1302.09 332.641L1070.06 433.695C1062.83 436.846 1054.36 435.05 1049 429.223L879.434 245.003Z" stroke="url(#paint3_linear_51915_45191)" stroke-width="3"/>
<path opacity="0.040404" d="M876.648 241.929C871.221 235.821 870.423 226.897 874.684 219.96L1004.93 7.90997C1009.06 1.18978 1017.02 -2.15274 1024.73 -0.410282L1271.71 55.366C1279.58 57.143 1285.41 63.801 1286.12 71.8267L1308.13 317.922C1308.85 325.948 1304.29 333.495 1296.86 336.582L1063.54 433.463C1056.25 436.49 1047.82 434.549 1042.56 428.632L876.648 241.929Z" stroke="url(#paint4_linear_51915_45191)" stroke-width="3"/>
<path opacity="0.050505" d="M873.932 238.86C868.614 232.66 867.975 223.722 872.359 216.858L1006.1 7.4948C1010.35 0.846551 1018.36 -2.35946 1026.04 -0.48579L1271.48 59.3762C1279.32 61.2873 1285.03 68.0443 1285.6 76.0819L1303.18 322.007C1303.76 330.045 1299.06 337.514 1291.57 340.473L1057.04 433.167C1049.7 436.068 1041.31 433.984 1036.16 427.978L873.932 238.86Z" stroke="url(#paint5_linear_51915_45191)" stroke-width="3"/>
<path opacity="0.0606061" d="M871.28 235.797C866.073 229.506 865.593 220.558 870.1 213.769L1007.27 7.14676C1011.64 0.572344 1019.7 -2.49627 1027.35 -0.491911L1271.19 63.4204C1278.99 65.4649 1284.58 72.3189 1285.01 80.3656L1298.17 326.045C1298.6 334.092 1293.77 341.48 1286.24 344.311L1050.56 432.805C1043.17 435.581 1034.82 433.354 1029.78 427.262L871.28 235.797Z" stroke="url(#paint6_linear_51915_45191)" stroke-width="3"/>
<path opacity="0.0707071" d="M868.711 232.742C863.616 226.363 863.296 217.406 867.924 210.695L1008.47 6.86704C1012.95 0.368362 1021.07 -2.56195 1028.68 -0.42749L1270.84 67.4986C1278.61 69.6759 1284.07 76.6246 1284.36 84.6778L1293.12 330.036C1293.41 338.089 1288.45 345.394 1280.86 348.096L1044.13 432.381C1036.69 435.029 1028.38 432.66 1023.45 426.483L868.711 232.742Z" stroke="url(#paint7_linear_51915_45191)" stroke-width="3"/>
<path opacity="0.0808081" d="M866.211 229.697C861.231 223.232 861.071 214.271 865.818 207.639L1009.68 6.65707C1014.28 0.235993 1022.45 -2.55521 1030.02 -0.29129L1270.44 71.6107C1278.16 73.9202 1283.5 80.9614 1283.65 89.0186L1288.02 333.981C1288.16 342.039 1283.07 349.258 1275.44 351.83L1037.73 431.895C1030.24 434.416 1021.98 431.906 1017.16 425.645L866.211 229.697Z" stroke="url(#paint8_linear_51915_45191)" stroke-width="3"/>
<path opacity="0.0909091" d="M863.776 226.662C858.912 220.112 858.912 211.149 863.776 204.6L1010.9 6.51471C1015.61 0.173126 1023.83 -2.47818 1031.36 -0.0853882L1269.96 75.7534C1277.64 78.1944 1282.86 85.3259 1282.86 93.3843V337.877C1282.86 345.936 1277.64 353.067 1269.96 355.508L1031.36 431.347C1023.83 433.74 1015.61 431.088 1010.9 424.747L863.776 226.662Z" stroke="url(#paint9_linear_51915_45191)" stroke-width="3"/>
<path opacity="0.10101" d="M861.397 223.637C856.65 217.006 856.81 208.045 861.79 201.579L1012.11 6.44071C1016.94 0.180422 1025.2 -2.33018 1032.68 0.190789L1269.41 79.9265C1277.05 82.4982 1282.14 89.7176 1281.99 97.7747L1277.64 341.724C1277.5 349.781 1272.15 356.822 1264.43 359.132L1025 430.737C1017.43 433.001 1009.26 430.21 1004.67 423.789L861.397 223.637Z" stroke="url(#paint10_linear_51915_45191)" stroke-width="3"/>
<path opacity="0.111111" d="M859.102 220.626C854.475 213.914 854.795 204.958 859.89 198.579L1013.35 6.43555C1018.29 0.258469 1026.59 -2.11079 1034.03 0.537713L1268.81 84.1291C1276.4 86.8308 1281.36 94.1357 1281.07 102.189L1272.39 345.521C1272.1 353.574 1266.63 360.523 1258.87 362.7L1018.7 430.067C1011.09 432.202 1002.97 429.271 998.49 422.773L859.102 220.626Z" stroke="url(#paint11_linear_51915_45191)" stroke-width="3"/>
<path opacity="0.121212" d="M856.881 217.627C852.374 210.838 852.854 201.89 858.061 195.599L1014.6 6.49835C1019.65 0.406238 1028 -1.8209 1035.39 0.954388L1268.16 88.3591C1275.7 91.19 1280.52 98.5781 1280.09 106.625L1267.09 349.267C1266.66 357.313 1261.07 364.167 1253.27 366.212L1012.44 429.337C1004.79 431.341 996.724 428.273 992.359 421.698L856.881 217.627Z" stroke="url(#paint12_linear_51915_45191)" stroke-width="3"/>
<path opacity="0.131313" d="M854.712 214.644C850.327 207.78 850.966 198.842 856.285 192.642L1015.84 6.63053C1021 0.625152 1029.38 -1.45917 1036.72 1.44215L1267.42 92.6169C1274.9 95.5761 1279.6 103.045 1279.03 111.083L1261.73 352.962C1261.16 361 1255.45 367.757 1247.61 369.668L1006.19 428.549C998.511 430.422 990.501 427.216 986.254 420.568L854.712 214.644Z" stroke="url(#paint13_linear_51915_45191)" stroke-width="3"/>
<path opacity="0.141414" d="M852.621 211.677C848.36 204.74 849.158 195.816 854.585 189.708L1017.1 6.8307C1022.36 0.913769 1030.78 -1.02707 1038.07 1.99952L1266.62 96.8999C1274.06 99.9865 1278.62 107.534 1277.9 115.56L1256.34 356.605C1255.63 364.631 1249.79 371.289 1241.92 373.066L999.999 427.702C992.283 429.444 984.33 426.101 980.202 419.381L852.621 211.677Z" stroke="url(#paint14_linear_51915_45191)" stroke-width="3"/>
<path opacity="0.151515" d="M850.595 208.728C846.459 201.72 847.416 192.812 852.951 186.799L1018.36 7.1C1023.72 1.27334 1032.18 -0.523459 1039.42 2.62762L1265.76 101.208C1273.14 104.421 1277.57 112.045 1276.71 120.056L1250.9 360.196C1250.04 368.207 1244.09 374.764 1236.2 376.406L993.841 426.798C986.094 428.408 978.2 424.93 974.193 418.14L850.595 208.728Z" stroke="url(#paint15_linear_51915_45191)" stroke-width="3"/>
<path opacity="0.161616" d="M848.641 205.795C844.631 198.719 845.747 189.832 851.387 183.915L1019.62 7.43647C1025.09 1.70178 1033.58 0.0496666 1040.76 3.32434L1264.84 105.538C1272.16 108.877 1276.45 116.574 1275.45 124.568L1245.43 363.732C1244.43 371.727 1238.36 378.18 1230.43 379.687L987.727 425.836C979.952 427.315 972.12 423.702 968.234 416.844L848.641 205.795Z" stroke="url(#paint16_linear_51915_45191)" stroke-width="3"/>
<path opacity="0.171717" d="M846.754 202.884C842.872 195.742 844.146 186.877 849.89 181.058L1020.89 7.84283C1026.46 2.20177 1034.98 0.694892 1042.1 4.09233L1263.86 109.893C1271.12 113.356 1275.27 121.124 1274.12 129.099L1239.91 367.216C1238.77 375.191 1232.59 381.539 1224.63 382.911L981.655 424.82C973.852 426.166 966.084 422.42 962.321 415.496L846.754 202.884Z" stroke="url(#paint17_linear_51915_45191)" stroke-width="3"/>
<path opacity="0.181818" d="M844.918 199.992C841.165 192.786 842.596 183.947 848.442 178.229L1022.14 8.31635C1027.81 2.77054 1036.36 1.40945 1043.42 4.92879L1262.79 114.267C1269.99 117.853 1274 125.69 1272.71 133.643L1234.34 370.645C1233.05 378.597 1226.76 384.838 1218.78 386.073L975.608 423.749C967.781 424.961 960.079 421.082 956.439 414.094L844.918 199.992Z" stroke="url(#paint18_linear_51915_45191)" stroke-width="3"/>
<path opacity="0.191919" d="M843.158 197.121C839.535 189.854 841.123 181.045 847.068 175.428L1023.4 8.85785C1029.17 3.40902 1037.74 2.19412 1044.74 5.83444L1261.67 118.661C1268.8 122.37 1272.67 130.273 1271.24 138.201L1228.73 374.018C1227.3 381.946 1220.9 388.077 1212.9 389.176L969.615 422.623C961.765 423.702 954.131 419.691 950.616 412.641L843.158 197.121Z" stroke="url(#paint19_linear_51915_45191)" stroke-width="3"/>
<path opacity="0.20202" d="M841.466 194.273C837.974 186.947 839.718 178.17 845.761 172.657L1024.66 9.46634C1030.53 4.11608 1039.13 3.04794 1046.06 6.80832L1260.48 123.072C1267.54 126.903 1271.27 134.869 1269.7 142.77L1223.09 377.334C1221.52 385.235 1215.01 391.254 1207 392.217L963.668 421.443C955.798 422.388 948.233 418.247 944.844 411.137L841.466 194.273Z" stroke="url(#paint20_linear_51915_45191)" stroke-width="3"/>
<path opacity="0.212121" d="M839.825 191.449C836.465 184.067 838.364 175.325 844.503 169.917L1025.9 10.1436C1031.86 4.8935 1040.48 3.97254 1047.35 7.85197L1259.21 127.503C1266.21 131.453 1269.8 139.481 1268.09 147.352L1217.4 380.596C1215.69 388.467 1209.08 394.372 1201.04 395.198L957.751 420.212C949.863 421.023 942.371 416.752 939.108 409.584L839.825 191.449Z" stroke="url(#paint21_linear_51915_45191)" stroke-width="3"/>
<path opacity="0.222222" d="M838.265 188.65C835.038 181.214 837.093 172.509 843.325 167.209L1027.16 10.8873C1033.21 5.73887 1041.85 4.96548 1048.65 8.96297L1257.9 131.948C1264.82 136.018 1268.26 144.104 1266.41 151.943L1211.69 383.799C1209.84 391.638 1203.12 397.428 1195.08 398.117L951.897 418.929C943.992 419.605 936.574 415.206 933.44 407.982L838.265 188.65Z" stroke="url(#paint22_linear_51915_45191)" stroke-width="3"/>
<path opacity="0.232323" d="M836.762 185.878C833.669 178.39 835.877 169.726 842.201 164.535L1028.4 11.6997C1034.55 6.65455 1043.2 6.0291 1049.93 10.1436L1256.5 136.41C1263.36 140.598 1266.66 148.74 1264.67 156.544L1205.94 386.947C1203.95 394.751 1197.13 400.424 1189.07 400.975L946.081 417.596C938.163 418.138 930.822 413.611 927.816 406.334L836.762 185.878Z" stroke="url(#paint23_linear_51915_45191)" stroke-width="3"/>
<path opacity="0.242424" d="M835.318 183.132C832.361 175.595 834.722 166.975 841.135 161.894L1029.63 12.5783C1035.87 7.63795 1044.54 7.16077 1051.2 11.3912L1255.04 140.885C1261.82 145.19 1264.97 153.385 1262.85 161.151L1200.15 390.036C1198.02 397.802 1191.1 403.356 1183.03 403.77L940.309 416.213C932.38 416.62 925.117 411.967 922.241 404.638L835.318 183.132Z" stroke="url(#paint24_linear_51915_45191)" stroke-width="3"/>
<path opacity="0.252525" d="M833.937 180.413C831.116 172.83 833.629 164.256 840.129 159.288L1030.86 13.5227C1037.18 8.68857 1045.86 8.35998 1052.45 12.7053L1253.52 145.372C1260.21 149.792 1263.22 158.038 1260.96 165.764L1194.33 393.066C1192.06 400.792 1185.04 406.225 1176.97 406.501L934.585 414.781C926.646 415.052 919.464 410.274 916.718 402.896L833.937 180.413Z" stroke="url(#paint25_linear_51915_45191)" stroke-width="3"/>
<path opacity="0.262626" d="M832.618 177.723C829.933 170.096 832.597 161.571 839.183 156.717L1032.07 14.5331C1038.48 9.80673 1047.17 9.62698 1053.68 14.0861L1251.92 149.87C1258.54 154.404 1261.4 162.698 1259 170.382L1188.47 396.036C1186.07 403.72 1178.96 409.031 1170.88 409.169L928.909 413.3C920.963 413.436 913.863 408.534 911.249 401.109L832.618 177.723Z" stroke="url(#paint26_linear_51915_45191)" stroke-width="3"/>
<path opacity="0.272727" d="M831.367 175.064C828.82 167.396 831.634 158.923 838.302 154.184L1033.28 15.611C1039.78 10.9938 1048.47 10.9632 1054.9 15.5348L1250.27 154.38C1256.8 159.026 1259.52 167.366 1256.98 175.005L1182.6 398.949C1180.06 406.588 1172.85 411.774 1164.77 411.774L923.29 411.774C915.339 411.774 908.323 406.75 905.842 399.279L831.367 175.064Z" stroke="url(#paint27_linear_51915_45191)" stroke-width="3"/>
<path opacity="0.282828" d="M830.156 172.435C827.747 164.728 830.71 156.31 837.459 151.688L1034.46 16.7535C1041.04 12.2469 1049.74 12.3655 1056.09 17.0486L1248.52 158.898C1254.98 163.655 1257.54 172.037 1254.87 179.63L1176.67 401.8C1173.99 409.393 1166.7 414.453 1158.62 414.315L917.7 410.201C909.746 410.065 902.817 404.92 900.469 397.407L830.156 172.435Z" stroke="url(#paint28_linear_51915_45191)" stroke-width="3"/>
<path opacity="0.292929" d="M829.027 169.84C826.757 162.096 829.868 153.736 836.695 149.232L1035.65 17.9626C1042.31 13.5679 1051.01 13.836 1057.28 18.6293L1246.74 163.424C1253.1 168.291 1255.52 176.714 1252.71 184.257L1170.73 404.593C1167.93 412.136 1160.54 417.068 1152.46 416.793L912.183 408.585C904.229 408.313 897.388 403.048 895.174 395.493L829.027 169.84Z" stroke="url(#paint29_linear_51915_45191)" stroke-width="3"/>
<path opacity="0.30303" d="M827.944 167.276C825.814 159.498 829.071 151.199 835.974 146.814L1036.8 19.2351C1043.54 14.9537 1052.24 15.3714 1058.43 20.2736L1244.87 167.956C1251.15 172.932 1253.42 181.392 1250.48 188.883L1164.76 407.324C1161.82 414.815 1154.34 419.618 1146.27 419.204L906.704 406.923C898.752 406.515 892.002 401.132 889.922 393.539L827.944 167.276Z" stroke="url(#paint30_linear_51915_45191)" stroke-width="3"/>
<path opacity="0.313131" d="M826.926 164.747C824.936 156.939 828.338 148.702 835.315 144.438L1037.95 20.5738C1044.77 16.407 1053.47 16.9744 1059.57 21.9843L1242.94 172.495C1249.13 177.577 1251.25 186.073 1248.18 193.51L1158.76 409.995C1155.69 417.432 1148.13 422.105 1140.07 421.553L901.284 405.219C893.336 404.676 886.678 399.175 884.733 391.546L826.926 164.747Z" stroke="url(#paint31_linear_51915_45191)" stroke-width="3"/>
<path opacity="0.323232" d="M825.964 162.252C824.115 154.414 827.66 146.244 834.708 142.101L1039.09 21.9744C1045.98 17.9235 1054.67 18.6407 1060.68 23.757L1240.94 177.036C1247.04 182.224 1249.01 190.752 1245.81 198.132L1152.74 412.603C1149.54 419.983 1141.9 424.524 1133.85 423.835L895.915 403.472C887.973 402.792 881.409 397.176 879.601 389.512L825.964 162.252Z" stroke="url(#paint32_linear_51915_45191)" stroke-width="3"/>
<path opacity="0.333333" d="M825.054 159.794C823.345 151.93 827.033 143.828 834.15 139.808L1040.2 23.4405C1047.16 19.5067 1055.84 20.3736 1061.77 25.5949L1238.87 181.582C1244.88 186.874 1246.69 195.431 1243.36 202.753L1146.69 415.151C1143.36 422.473 1135.64 426.879 1127.6 426.053L890.593 401.685C882.659 400.869 876.192 395.139 874.52 387.444L825.054 159.794Z" stroke="url(#paint33_linear_51915_45191)" stroke-width="3"/>
<path opacity="0.343434" d="M824.205 157.371C822.638 149.484 826.466 141.453 833.65 137.558L1041.29 24.9687C1048.33 21.1533 1057 22.1699 1062.83 27.4949L1236.74 186.129C1242.65 191.522 1244.32 200.107 1240.85 207.368L1140.62 417.636C1137.16 424.897 1129.37 429.168 1121.34 428.205L885.331 399.858C877.408 398.906 871.04 393.063 869.505 385.338L824.205 157.371Z" stroke="url(#paint34_linear_51915_45191)" stroke-width="3"/>
<path opacity="0.353535" d="M823.41 154.987C821.984 147.079 825.952 139.122 833.2 135.352L1042.36 26.5607C1049.47 22.8649 1058.13 24.0312 1063.87 29.4585L1234.54 190.677C1240.35 196.172 1241.87 204.781 1238.28 211.978L1134.53 420.06C1130.94 427.257 1123.07 431.393 1115.07 430.292L880.121 397.992C872.212 396.905 865.943 390.95 864.546 383.198L823.41 154.987Z" stroke="url(#paint35_linear_51915_45191)" stroke-width="3"/>
<path opacity="0.363636" d="M822.671 152.642C821.388 144.715 825.493 136.833 832.803 133.19L1043.42 28.2144C1050.59 24.6394 1059.23 25.9553 1064.88 31.4834L1232.27 195.225C1237.99 200.818 1239.35 209.449 1235.63 216.581L1128.42 422.421C1124.7 429.552 1116.77 433.55 1108.78 432.313L874.969 396.088C867.075 394.865 860.908 388.801 859.649 381.023L822.671 152.642Z" stroke="url(#paint36_linear_51915_45191)" stroke-width="3"/>
<path opacity="0.373737" d="M821.98 150.336C820.839 142.393 825.081 134.59 832.45 131.074L1044.45 29.9301C1051.68 26.477 1060.3 27.9423 1065.86 33.5698L1229.93 199.771C1235.55 205.462 1236.76 214.112 1232.92 221.175L1122.28 424.72C1118.44 431.783 1110.44 435.642 1102.47 434.268L869.866 394.148C861.99 392.789 855.927 386.617 854.807 378.817L821.98 150.336Z" stroke="url(#paint37_linear_51915_45191)" stroke-width="3"/>
<path opacity="0.383838" d="M821.348 148.069C820.35 140.113 824.726 132.39 832.152 129.003L1045.45 31.706C1052.76 28.3759 1061.36 29.9905 1066.81 35.7159L1227.54 204.313C1233.05 210.099 1234.1 218.767 1230.14 225.76L1116.13 426.954C1112.17 433.948 1104.1 437.667 1096.16 436.157L864.825 392.17C856.969 390.677 851.012 384.398 850.031 376.577L821.348 148.069Z" stroke="url(#paint38_linear_51915_45191)" stroke-width="3"/>
<path opacity="0.393939" d="M820.771 145.844C819.915 137.878 824.424 130.238 831.905 126.98L1046.44 33.5438C1053.8 30.3378 1062.38 32.1014 1067.74 37.9232L1225.07 208.853C1230.48 214.733 1231.39 223.414 1227.3 230.335L1109.97 429.127C1105.89 436.048 1097.75 439.626 1089.84 437.981L859.843 390.159C852.01 388.531 846.16 382.147 845.318 374.308L820.771 145.844Z" stroke="url(#paint39_linear_51915_45191)" stroke-width="3"/>
<path opacity="0.40404" d="M820.227 143.66C819.514 135.686 824.154 128.132 831.687 125.004L1047.39 35.4401C1054.81 32.3593 1063.36 34.2716 1068.61 40.1882L1222.53 213.386C1227.83 219.358 1228.58 228.05 1224.37 234.897L1103.77 431.235C1099.57 438.082 1091.37 441.517 1083.49 439.737L854.901 388.113C847.092 386.35 841.352 379.863 840.65 372.008L820.227 143.66Z" stroke="url(#paint40_linear_51915_45191)" stroke-width="3"/>
<path opacity="0.414141" d="M819.759 141.521C819.189 133.54 823.958 126.074 831.541 123.077L1048.33 37.3976C1055.81 34.4428 1064.33 36.5037 1069.48 42.5135L1219.94 217.914C1225.14 223.977 1225.73 232.678 1221.41 239.448L1097.59 433.281C1093.26 440.051 1085.01 443.344 1077.16 441.429L850.042 386.036C842.26 384.138 836.632 377.55 836.069 369.682L819.759 141.521Z" stroke="url(#paint41_linear_51915_45191)" stroke-width="3"/>
<path opacity="0.424242" d="M819.316 139.424C818.888 131.44 823.785 124.064 831.415 121.199L1049.22 39.4135C1056.75 36.5858 1065.24 38.7947 1070.29 44.8962L1217.26 222.435C1222.35 228.586 1222.79 237.293 1218.35 243.985L1091.37 435.263C1086.92 441.955 1078.61 445.103 1070.8 443.054L845.216 383.927C837.464 381.895 831.948 375.208 831.526 367.328L819.316 139.424Z" stroke="url(#paint42_linear_51915_45191)" stroke-width="3"/>
<path opacity="0.434343" d="M818.932 137.372C818.647 129.387 823.669 122.103 831.344 119.371L1050.09 41.4876C1057.68 38.788 1066.13 41.1446 1071.08 47.336L1214.53 226.947C1219.51 233.185 1219.8 241.895 1215.24 248.507L1085.14 437.181C1080.58 443.793 1072.22 446.796 1064.44 444.614L840.459 381.788C832.739 379.622 827.338 372.836 827.056 364.948L818.932 137.372Z" stroke="url(#paint43_linear_51915_45191)" stroke-width="3"/>
<path opacity="0.444444" d="M818.598 135.364C818.456 127.382 823.602 120.192 831.319 117.593L1050.94 43.6193C1058.57 41.0486 1066.99 43.5526 1071.83 49.8322L1211.74 231.449C1216.61 237.772 1216.74 246.483 1212.07 253.012L1078.91 439.035C1074.23 445.565 1065.82 448.421 1058.08 446.107L835.764 379.619C828.077 377.32 822.793 370.438 822.652 362.543L818.598 135.364Z" stroke="url(#paint44_linear_51915_45191)" stroke-width="3"/>
<path opacity="0.454545" d="M818.303 133.404C818.303 125.426 823.572 118.332 831.328 115.867L1051.75 45.8089C1059.43 43.3679 1067.81 46.0186 1072.53 52.3848L1208.87 235.942C1213.62 242.347 1213.61 251.056 1208.82 257.501L1072.66 440.826C1067.87 447.271 1059.41 449.981 1051.71 447.535L831.12 377.422C823.469 374.99 818.303 368.014 818.303 360.115L818.303 133.404Z" stroke="url(#paint45_linear_51915_45191)" stroke-width="3"/>
<path opacity="0.464646" d="M818.065 131.489C818.207 123.518 823.596 116.522 831.389 114.191L1052.53 48.054C1060.26 45.7437 1068.6 48.5406 1073.21 54.9916L1205.95 240.421C1210.59 246.908 1210.42 255.612 1205.52 261.971L1066.41 442.553C1061.51 448.912 1053 451.474 1045.35 448.896L826.546 375.198C818.934 372.634 813.888 365.565 814.029 357.664L818.065 131.489Z" stroke="url(#paint46_linear_51915_45191)" stroke-width="3"/>
<path opacity="0.474747" d="M817.863 129.621C818.148 121.659 823.654 114.764 831.483 112.568L1053.28 50.3543C1061.05 48.1754 1069.34 51.118 1073.85 57.6519L1202.95 244.888C1207.48 251.453 1207.15 260.151 1202.15 266.422L1060.14 444.215C1055.14 450.486 1046.59 452.899 1038.98 450.191L822.025 372.946C814.454 370.251 809.529 363.092 809.811 355.192L817.863 129.621Z" stroke="url(#paint47_linear_51915_45191)" stroke-width="3"/>
<path opacity="0.484848" d="M817.71 127.801C818.136 119.851 823.759 113.058 831.62 110.998L1054 52.7101C1061.81 50.6634 1070.05 53.7511 1074.45 60.3661L1199.9 249.341C1204.31 255.983 1203.83 264.671 1198.72 270.852L1053.88 445.814C1048.76 451.994 1040.17 454.259 1032.61 451.42L817.568 370.671C810.04 367.844 805.238 360.596 805.661 352.699L817.71 127.801Z" stroke="url(#paint48_linear_51915_45191)" stroke-width="3"/>
<path opacity="0.494949" d="M817.596 126.029C818.164 118.094 823.901 111.405 831.792 109.481L1054.68 55.1197C1062.53 53.206 1070.72 56.4379 1075 63.1323L1196.78 253.778C1201.07 260.496 1200.44 269.171 1195.22 275.26L1047.6 447.348C1042.38 453.437 1033.76 455.551 1026.25 452.584L813.168 368.371C805.685 365.414 801.008 358.079 801.573 350.188L817.596 126.029Z" stroke="url(#paint49_linear_51915_45191)" stroke-width="3"/>
<path opacity="0.50505" d="M817.522 124.308C818.23 116.389 824.079 109.807 831.997 108.019L1055.32 57.5837C1063.21 55.8035 1071.35 59.1791 1075.51 65.9509L1193.6 258.2C1197.77 264.991 1196.98 273.651 1191.66 279.647L1041.32 448.819C1035.99 454.814 1027.33 456.779 1019.88 453.683L808.826 366.049C801.391 362.962 796.841 355.543 797.546 347.659L817.522 124.308Z" stroke="url(#paint50_linear_51915_45191)" stroke-width="3"/>
<path opacity="0.515152" d="M817.49 122.636C818.339 114.736 824.298 108.262 832.241 106.611L1055.93 60.1005C1063.85 58.4545 1071.94 61.973 1075.98 68.8203L1190.35 262.605C1194.4 269.466 1193.46 278.109 1188.03 284.01L1035.04 450.226C1029.61 456.126 1020.92 457.94 1013.52 454.717L804.546 363.705C797.162 360.489 792.74 352.987 793.586 345.114L817.49 122.636Z" stroke="url(#paint51_linear_51915_45191)" stroke-width="3"/>
<path opacity="0.525253" d="M817.504 121.015C818.492 113.137 824.559 106.773 832.525 105.258L1056.51 62.6692C1064.45 61.158 1072.49 64.8185 1076.41 71.7394L1187.05 266.991C1190.98 273.921 1189.89 282.545 1184.36 288.348L1028.76 451.569C1023.23 457.373 1014.51 459.035 1007.17 455.686L800.334 361.34C793.003 357.996 788.709 350.414 789.696 342.553L817.504 121.015Z" stroke="url(#paint52_linear_51915_45191)" stroke-width="3"/>
<path opacity="0.535354" d="M817.543 119.445C818.671 111.591 824.844 105.338 832.83 103.961L1057.03 65.289C1065.01 63.9132 1072.98 67.7149 1076.78 74.7074L1183.67 271.358C1187.47 278.355 1186.24 286.956 1180.6 292.66L1022.47 452.849C1016.83 458.553 1008.09 460.064 1000.81 456.59L796.17 358.956C788.894 355.484 784.731 347.824 785.859 339.978L817.543 119.445Z" stroke="url(#paint53_linear_51915_45191)" stroke-width="3"/>
<path opacity="0.545455" d="M817.631 117.927C818.899 110.099 825.175 103.959 833.178 102.719L1057.53 67.9598C1065.53 66.7199 1073.44 70.6618 1077.12 77.7238L1180.24 275.704C1183.92 282.766 1182.53 291.342 1176.8 296.947L1016.19 454.065C1010.46 459.669 1001.69 461.028 994.47 457.429L792.079 356.553C784.859 352.955 780.83 345.219 782.097 337.39L817.631 117.927Z" stroke="url(#paint54_linear_51915_45191)" stroke-width="3"/>
<path opacity="0.555556" d="M817.76 116.461C819.166 108.661 825.544 102.637 833.561 101.534L1057.99 70.68C1066.02 69.5765 1073.86 73.6577 1077.42 80.7872L1176.76 280.029C1180.31 287.154 1178.77 295.702 1172.95 301.205L1009.91 455.217C1004.08 460.72 995.298 461.926 988.143 458.204L788.053 354.133C780.893 350.409 776.997 342.599 778.405 334.79L817.76 116.461Z" stroke="url(#paint55_linear_51915_45191)" stroke-width="3"/>
<path opacity="0.565657" d="M817.917 115.048C819.46 107.279 825.938 101.371 833.968 100.406L1058.41 73.4492C1066.45 72.4825 1074.23 76.7019 1077.66 83.8969L1173.21 284.332C1176.63 291.517 1174.94 300.036 1169.02 305.435L1003.63 456.307C997.711 461.706 988.906 462.759 981.818 458.916L784.081 351.697C776.983 347.848 773.223 339.966 774.77 332.18L817.917 115.048Z" stroke="url(#paint56_linear_51915_45191)" stroke-width="3"/>
<path opacity="0.575758" d="M818.113 113.688C819.794 105.952 826.368 100.162 834.409 99.3349L1058.78 76.266C1066.85 75.4366 1074.56 79.7932 1077.86 87.0515L1169.6 288.611C1172.9 295.854 1171.06 304.34 1165.05 309.634L997.359 457.333C991.348 462.627 982.529 463.527 975.509 459.563L780.177 349.245C773.143 345.273 769.519 337.321 771.206 329.559L818.113 113.688Z" stroke="url(#paint57_linear_51915_45191)" stroke-width="3"/>
<path opacity="0.585859" d="M818.337 112.383C820.154 104.683 826.824 99.0116 834.871 98.3228L1059.11 79.1318C1067.2 78.4399 1074.83 82.9325 1078.01 90.2521L1165.93 292.867C1169.09 300.167 1167.11 308.617 1161.01 313.805L991.087 458.297C984.986 463.485 976.154 464.232 969.206 460.148L776.329 346.781C769.361 342.686 765.875 334.667 767.701 326.932L818.337 112.383Z" stroke="url(#paint58_linear_51915_45191)" stroke-width="3"/>
<path opacity="0.59596" d="M818.591 111.131C820.544 103.469 827.307 97.9182 835.36 97.3674L1059.4 82.0425C1067.5 81.4885 1075.05 86.116 1078.1 93.4946L1162.19 297.097C1165.23 304.45 1163.1 312.863 1156.91 317.943L984.819 459.197C978.63 464.277 969.79 464.871 962.914 460.669L772.541 344.303C765.642 340.086 762.295 332.002 764.259 324.297L818.591 111.131Z" stroke="url(#paint59_linear_51915_45191)" stroke-width="3"/>
<path opacity="0.606061" d="M818.877 109.935C820.965 102.313 827.818 96.8842 835.873 96.4712L1059.64 84.9997C1067.75 84.584 1075.23 89.345 1078.15 96.7805L1158.4 301.301C1161.31 308.705 1159.03 317.079 1152.75 322.049L978.558 460.036C972.283 465.007 963.436 465.448 956.636 461.128L768.815 341.813C761.986 337.476 758.781 329.329 760.882 321.656L818.877 109.935Z" stroke="url(#paint60_linear_51915_45191)" stroke-width="3"/>
<path opacity="0.616162" d="M819.208 108.793C821.43 101.213 828.371 95.9082 836.427 95.633L1059.85 88.0008C1067.97 87.7235 1075.37 92.6169 1078.16 100.107L1154.57 305.476C1157.34 312.93 1154.92 321.261 1148.56 326.122L972.321 460.812C965.962 465.672 957.111 465.959 950.388 461.524L765.166 339.312C758.411 334.855 755.347 326.649 757.586 319.009L819.208 108.793Z" stroke="url(#paint61_linear_51915_45191)" stroke-width="3"/>
<path opacity="0.626263" d="M819.549 107.708C821.904 100.172 828.932 94.9921 836.986 94.8546L1060 91.0467C1068.12 90.908 1075.44 95.9323 1078.1 103.475L1150.66 309.625C1153.3 317.126 1150.73 325.412 1144.29 330.16L966.075 461.527C959.633 466.275 950.782 466.409 944.139 461.859L761.561 336.803C754.881 332.227 751.96 323.963 754.337 316.36L819.549 107.708Z" stroke="url(#paint62_linear_51915_45191)" stroke-width="3"/>
<path opacity="0.636364" d="M819.936 106.679C822.423 99.1901 829.535 94.1361 837.584 94.1361L1060.12 94.1361C1068.25 94.1361 1075.48 99.2901 1078 106.883L1146.71 313.745C1149.22 321.291 1146.5 329.529 1139.98 334.164L959.856 462.181C953.335 466.816 944.485 466.796 937.923 462.133L758.036 334.285C751.433 329.592 748.657 321.273 751.169 313.709L819.936 106.679Z" stroke="url(#paint63_linear_51915_45191)" stroke-width="3"/>
<path opacity="0.646465" d="M820.348 105.705C822.967 98.2654 830.159 93.3387 838.202 93.476L1060.19 97.2664C1068.32 97.4052 1075.46 102.687 1077.85 110.328L1142.71 317.833C1145.08 325.422 1142.22 333.611 1135.62 338.132L953.648 462.772C947.048 467.292 938.204 467.12 931.725 462.344L754.571 331.759C748.048 326.95 745.417 318.578 748.065 311.055L820.348 105.705Z" stroke="url(#paint64_linear_51915_45191)" stroke-width="3"/>
<path opacity="0.656566" d="M820.777 104.79C823.526 97.4006 830.798 92.6025 838.832 92.8769L1060.2 100.439C1068.34 100.717 1075.39 106.126 1077.64 113.811L1138.64 321.892C1140.87 329.521 1137.87 337.658 1131.2 342.063L947.444 463.303C940.768 467.708 931.931 467.383 925.538 462.497L751.16 329.227C744.719 324.304 742.234 315.881 745.017 308.403L820.777 104.79Z" stroke="url(#paint65_linear_51915_45191)" stroke-width="3"/>
<path opacity="0.666667" d="M821.231 103.93C824.11 96.5938 831.459 91.9252 839.481 92.3365L1060.17 103.65C1068.3 104.067 1075.26 109.601 1077.38 117.33L1134.51 325.917C1136.61 333.584 1133.47 341.667 1126.72 345.955L941.254 463.773C934.504 468.061 925.677 467.583 919.371 462.588L747.811 326.689C741.454 321.653 739.117 313.182 742.034 305.75L821.231 103.93Z" stroke="url(#paint66_linear_51915_45191)" stroke-width="3"/>
<path opacity="0.676768" d="M821.714 103.128C824.721 95.847 832.145 91.3092 840.153 91.8569L1060.1 106.902C1068.22 107.457 1075.08 113.115 1077.06 120.884L1130.34 329.911C1132.3 337.613 1129.02 345.639 1122.2 349.809L935.084 464.183C928.263 468.352 919.448 467.722 913.232 462.62L744.529 324.147C738.259 319 736.07 310.484 739.12 303.1L821.714 103.128Z" stroke="url(#paint67_linear_51915_45191)" stroke-width="3"/>
<path opacity="0.686869" d="M822.217 102.384C825.351 95.1605 832.848 90.7545 840.839 91.4384L1059.97 110.192C1068.08 110.886 1074.85 116.666 1076.69 124.474L1126.11 333.871C1127.94 341.606 1124.52 349.574 1117.62 353.625L928.928 464.533C922.037 468.584 913.237 467.801 907.113 462.593L741.308 321.602C735.125 316.345 733.086 307.787 736.268 300.453L822.217 102.384Z" stroke="url(#paint68_linear_51915_45191)" stroke-width="3"/>
<path opacity="0.69697" d="M822.736 101.698C825.997 94.5339 833.564 90.2606 841.536 91.0803L1059.79 113.52C1067.89 114.353 1074.56 120.252 1076.26 128.096L1121.83 337.797C1123.52 345.563 1119.95 353.469 1112.99 357.399L922.785 464.824C915.825 468.754 907.044 467.82 901.012 462.508L738.143 319.056C732.051 313.69 730.162 305.091 733.476 297.811L822.736 101.698Z" stroke="url(#paint69_linear_51915_45191)" stroke-width="3"/>
<path opacity="0.707071" d="M823.284 101.071C826.67 93.9682 834.304 89.8286 842.256 90.7837L1059.57 116.884C1067.65 117.856 1074.22 123.874 1075.79 131.751L1117.5 341.688C1119.05 349.482 1115.35 357.325 1108.32 361.134L916.667 465.057C909.642 468.866 900.881 467.78 894.945 462.365L735.048 316.509C729.049 311.036 727.311 302.4 730.755 295.175L823.284 101.071Z" stroke="url(#paint70_linear_51915_45191)" stroke-width="3"/>
<path opacity="0.717172" d="M823.851 100.502C827.361 93.4621 835.061 89.4572 842.99 90.5473L1059.29 120.284C1067.36 121.394 1073.83 127.528 1075.25 135.436L1113.12 345.542C1114.53 353.363 1110.7 361.14 1103.61 364.826L910.569 465.23C903.481 468.917 894.744 467.681 888.904 462.164L732.016 313.961C726.111 308.383 724.525 299.712 728.099 292.545L823.851 100.502Z" stroke="url(#paint71_linear_51915_45191)" stroke-width="3"/>
<path opacity="0.727273" d="M824.43 99.9918C828.063 93.0174 835.826 89.1481 843.73 90.3726L1058.96 123.719C1067.02 124.967 1073.37 131.216 1074.66 139.153L1108.69 349.36C1109.96 357.204 1105.99 364.913 1098.84 368.477L904.485 465.346C897.336 468.91 888.625 467.523 882.884 461.907L729.039 311.415C723.231 305.733 721.797 297.031 725.5 289.923L824.43 99.9918Z" stroke="url(#paint72_linear_51915_45191)" stroke-width="3"/>
<path opacity="0.737374" d="M825.03 99.5408C828.784 92.6336 836.608 88.9007 844.484 90.2591L1058.58 127.187C1066.61 128.573 1072.86 134.935 1074 142.898L1104.21 353.141C1105.34 361.006 1101.23 368.645 1094.02 372.084L898.426 465.404C891.217 468.844 882.535 467.307 876.895 461.594L726.127 308.871C720.417 303.087 719.137 294.356 722.967 287.31L825.03 99.5408Z" stroke="url(#paint73_linear_51915_45191)" stroke-width="3"/>
<path opacity="0.747475" d="M825.648 99.1494C829.523 92.3113 837.406 88.7156 845.252 90.2074L1058.15 130.689C1066.16 132.212 1072.3 138.685 1073.3 146.671L1099.69 356.883C1100.68 364.767 1096.43 372.334 1089.17 375.648L892.393 465.406C885.127 468.721 876.476 467.035 870.938 461.226L723.279 306.332C717.67 300.447 716.544 291.689 720.5 284.708L825.648 99.1494Z" stroke="url(#paint74_linear_51915_45191)" stroke-width="3"/>
<path opacity="0.757576" d="M826.279 98.8158C830.273 92.0488 838.212 88.5911 846.026 90.2157L1057.67 134.221C1065.65 135.881 1071.67 142.464 1072.54 150.47L1095.11 360.585C1095.96 368.486 1091.59 375.978 1084.27 379.166L886.38 465.351C879.06 468.539 870.443 466.705 865.009 460.801L720.49 303.795C714.983 297.812 714.012 289.03 718.093 282.115L826.279 98.8158Z" stroke="url(#paint75_linear_51915_45191)" stroke-width="3"/>
<path opacity="0.767677" d="M826.933 98.5431C831.045 91.8489 839.038 88.5299 846.817 90.2867L1057.14 137.786C1065.1 139.582 1071 146.271 1071.72 154.296L1090.5 364.249C1091.21 372.164 1086.7 379.578 1079.33 382.64L880.402 465.24C873.029 468.302 864.448 466.32 859.12 460.324L717.772 301.265C712.369 295.185 711.553 286.382 715.758 279.536L826.933 98.5431Z" stroke="url(#paint76_linear_51915_45191)" stroke-width="3"/>
<path opacity="0.777778" d="M827.587 98.3295C831.816 91.71 839.86 88.5305 847.603 90.4188L1056.55 141.38C1064.47 143.312 1070.26 150.106 1070.84 158.146L1085.83 367.872C1086.4 375.798 1081.76 383.134 1074.34 386.068L874.437 465.074C867.013 468.008 858.471 465.879 853.25 459.792L715.101 298.741C709.805 292.566 709.145 283.745 713.473 276.971L827.587 98.3295Z" stroke="url(#paint77_linear_51915_45191)" stroke-width="3"/>
<path opacity="0.787879" d="M828.257 98.1763C832.6 91.6334 840.695 88.5939 848.398 90.6131L1055.91 145.003C1063.8 147.071 1069.47 153.967 1069.9 162.021L1081.12 371.454C1081.54 379.389 1076.78 386.644 1069.31 389.45L868.502 464.854C861.029 467.66 852.53 465.384 847.418 459.209L712.496 296.225C707.308 289.958 706.804 281.122 711.253 274.42L828.257 98.1763Z" stroke="url(#paint78_linear_51915_45191)" stroke-width="3"/>
<path opacity="0.79798" d="M828.934 98.0813C833.392 91.6166 841.533 88.718 849.196 90.8673L1055.21 148.653C1063.06 150.856 1068.61 157.853 1068.9 165.917L1076.36 374.993C1076.65 382.935 1071.76 390.107 1064.24 392.783L862.592 464.578C855.073 467.255 846.618 464.834 841.616 458.571L709.948 293.717C704.87 287.358 704.523 278.509 709.092 271.883L828.934 98.0813Z" stroke="url(#paint79_linear_51915_45191)" stroke-width="3"/>
<path opacity="0.808081" d="M829.623 98.0475C834.193 91.6629 842.38 88.9055 849.999 91.1843L1054.46 152.331C1062.27 154.668 1067.7 161.763 1067.84 169.835L1071.56 378.491C1071.71 386.437 1066.69 393.523 1059.13 396.07L856.713 464.25C849.15 466.797 840.741 464.231 835.852 457.884L707.463 291.219C702.496 284.771 702.306 275.913 706.994 269.364L829.623 98.0475Z" stroke="url(#paint80_linear_51915_45191)" stroke-width="3"/>
<path opacity="0.818182" d="M830.324 98.0715C835.006 91.7687 843.234 89.1533 850.809 91.5607L1053.65 156.033C1061.43 158.504 1066.73 165.695 1066.73 173.772L1066.73 381.943C1066.73 389.891 1061.59 396.89 1053.99 399.307L850.866 463.867C843.263 466.284 834.903 463.574 830.127 457.144L705.041 288.73C700.187 282.195 700.155 273.33 704.96 266.861L830.324 98.0715Z" stroke="url(#paint81_linear_51915_45191)" stroke-width="3"/>
<path opacity="0.828283" d="M831.029 98.1572C835.82 91.9379 844.089 89.4649 851.616 92.0002L1052.79 159.761C1060.52 162.365 1065.7 169.65 1065.55 177.729L1061.85 385.354C1061.71 393.301 1056.45 400.211 1048.81 402.497L845.048 463.434C837.404 465.72 829.096 462.867 824.436 456.356L702.675 286.254C697.937 279.635 698.062 270.766 702.982 264.378L831.029 98.1572Z" stroke="url(#paint82_linear_51915_45191)" stroke-width="3"/>
<path opacity="0.838384" d="M831.731 98.3012C836.63 92.1671 844.937 89.8371 852.415 92.4994L1051.87 163.512C1059.55 166.248 1064.6 173.624 1064.31 181.703L1056.92 388.719C1056.63 396.663 1051.26 403.481 1043.58 405.635L839.25 462.948C831.57 465.102 823.316 462.107 818.772 455.518L700.359 283.79C695.738 277.087 696.02 268.218 701.055 261.914L831.731 98.3012Z" stroke="url(#paint83_linear_51915_45191)" stroke-width="3"/>
<path opacity="0.848485" d="M832.452 98.5061C837.458 92.4589 845.801 90.2723 853.227 93.0608L1050.9 167.287C1058.54 170.155 1063.45 177.619 1063.02 185.696L1051.96 392.039C1051.54 399.978 1046.04 406.703 1038.33 408.725L833.5 462.412C825.785 464.434 817.587 461.298 813.161 454.632L698.117 281.34C693.614 274.557 694.054 265.689 699.202 259.471L832.452 98.5061Z" stroke="url(#paint84_linear_51915_45191)" stroke-width="3"/>
<path opacity="0.858586" d="M833.17 98.7696C838.281 92.811 846.657 90.7682 854.03 93.682L1049.87 171.083C1057.46 174.081 1062.24 181.632 1061.66 189.703L1046.96 395.313C1046.4 403.244 1040.78 409.874 1033.03 411.764L827.776 461.825C820.028 463.714 811.889 460.439 807.583 453.697L695.926 278.903C691.543 272.042 692.141 263.179 697.4 257.048L833.17 98.7696Z" stroke="url(#paint85_linear_51915_45191)" stroke-width="3"/>
<path opacity="0.868687" d="M833.881 99.0933C839.096 93.2248 847.503 91.3263 854.82 94.3645L1048.78 174.9C1056.31 178.027 1060.95 185.662 1060.23 193.725L1041.92 398.542C1041.21 406.462 1035.48 412.994 1027.7 414.751L822.076 461.188C814.297 462.945 806.22 459.53 802.034 452.716L693.784 276.483C689.522 269.545 690.277 260.69 695.646 254.649L833.881 99.0933Z" stroke="url(#paint86_linear_51915_45191)" stroke-width="3"/>
<path opacity="0.878788" d="M834.605 99.4773C839.922 93.7006 848.357 91.9467 855.617 95.1084L1047.63 178.737C1055.11 181.993 1059.62 189.71 1058.76 197.762L1036.84 401.724C1035.99 409.631 1030.15 416.065 1022.34 417.688L816.422 460.504C808.615 462.127 800.601 458.575 796.537 451.689L691.71 274.08C687.571 267.068 688.484 258.224 693.96 252.275L834.605 99.4773Z" stroke="url(#paint87_linear_51915_45191)" stroke-width="3"/>
<path opacity="0.888889" d="M835.341 99.9191C840.759 94.2357 849.22 92.6267 856.42 95.9109L1046.45 182.592C1053.87 185.976 1058.24 193.771 1057.23 201.81L1031.75 404.858C1030.76 412.75 1024.8 419.082 1016.97 420.571L810.815 459.77C802.982 461.259 795.035 457.57 791.094 450.616L689.705 271.693C685.691 264.609 686.761 255.779 692.344 249.923L835.341 99.9191Z" stroke="url(#paint88_linear_51915_45191)" stroke-width="3"/>
<path opacity="0.89899" d="M836.051 100.421C841.568 94.8324 850.054 93.3688 857.192 96.7744L1045.18 186.465C1052.54 189.975 1056.77 197.847 1055.62 205.869L1026.59 407.944C1025.46 415.818 1019.39 422.048 1011.53 423.403L805.22 458.989C797.363 460.344 789.483 456.52 785.667 449.499L687.732 269.325C683.844 262.171 685.071 253.358 690.758 247.597L836.051 100.421Z" stroke="url(#paint89_linear_51915_45191)" stroke-width="3"/>
<path opacity="0.909091" d="M836.774 100.983C842.389 95.491 850.897 94.1729 857.971 97.699L1043.87 190.356C1051.17 193.992 1055.26 201.937 1053.97 209.941L1021.41 410.984C1020.14 418.837 1013.97 424.962 1006.09 426.183L799.676 458.163C791.798 459.384 783.989 455.425 780.298 448.34L685.83 266.977C682.069 259.756 683.454 250.962 689.243 245.299L836.774 100.983Z" stroke="url(#paint90_linear_51915_45191)" stroke-width="3"/>
<path opacity="0.919192" d="M837.496 101.602C843.206 96.2075 851.733 95.0352 858.742 98.6808L1042.51 194.26C1049.73 198.02 1053.69 206.036 1052.25 214.019L1016.21 413.972C1014.79 421.803 1008.51 427.821 1000.61 428.907L794.171 457.289C786.273 458.374 778.538 454.283 774.974 447.136L683.985 264.647C680.353 257.361 681.894 248.59 687.784 243.026L837.496 101.602Z" stroke="url(#paint91_linear_51915_45191)" stroke-width="3"/>
<path opacity="0.929293" d="M838.211 102.281C844.016 96.9856 852.56 95.9593 859.502 99.7233L1041.08 198.18C1048.24 202.063 1052.05 210.148 1050.47 218.106L1010.97 416.912C1009.41 424.718 1003.03 430.628 995.111 431.579L788.703 456.37C780.788 457.321 773.127 453.098 769.692 445.891L682.193 262.339C678.691 254.992 680.388 246.246 686.377 240.783L838.211 102.281Z" stroke="url(#paint92_linear_51915_45191)" stroke-width="3"/>
<path opacity="0.939394" d="M838.906 103.018C844.803 97.8236 853.362 96.9436 860.235 100.825L1039.58 202.113C1046.67 206.119 1050.34 214.269 1048.61 222.201L1005.68 419.803C1003.99 427.581 997.495 433.381 989.565 434.197L783.258 455.408C775.328 456.223 767.745 451.87 764.438 444.605L680.44 260.054C677.069 252.646 678.922 243.929 685.008 238.568L838.906 103.018Z" stroke="url(#paint93_linear_51915_45191)" stroke-width="3"/>
<path opacity="0.949495" d="M839.615 103.814C845.603 98.7221 854.175 97.9885 860.976 101.986L1038.04 206.06C1045.06 210.187 1048.58 218.399 1046.72 226.302L1000.38 422.644C998.551 430.393 991.957 436.081 984.015 436.761L777.873 454.403C769.931 455.082 762.428 450.601 759.251 443.28L678.762 257.792C675.522 250.327 677.531 241.641 683.712 236.385L839.615 103.814Z" stroke="url(#paint94_linear_51915_45191)" stroke-width="3"/>
<path opacity="0.959596" d="M840.311 104.667C846.389 99.6782 854.971 99.0911 861.699 103.204L1036.44 210.017C1043.39 214.263 1046.76 222.535 1044.76 230.406L995.048 425.433C993.081 433.149 986.387 438.724 978.435 439.268L772.524 453.353C764.572 453.897 757.15 449.288 754.104 441.914L677.132 255.552C674.026 248.032 676.189 239.38 682.464 234.23L840.311 104.667Z" stroke="url(#paint95_linear_51915_45191)" stroke-width="3"/>
<path opacity="0.969697" d="M840.995 105.578C847.16 100.695 855.75 100.254 862.403 104.481L1034.78 213.985C1041.65 218.349 1044.88 226.679 1042.73 234.515L989.684 428.172C987.58 435.854 980.788 441.314 972.828 441.722L767.212 452.263C759.252 452.671 751.914 447.935 749.001 440.511L675.551 253.338C672.579 245.765 674.897 237.151 681.263 232.108L840.995 105.578Z" stroke="url(#paint96_linear_51915_45191)" stroke-width="3"/>
<path opacity="0.979798" d="M841.668 106.546C847.918 101.768 856.514 101.475 863.09 105.814L1033.06 217.961C1039.85 222.442 1042.93 230.826 1040.64 238.625L984.291 430.858C982.05 438.503 975.162 443.846 967.196 444.118L761.94 451.13C753.974 451.402 746.722 446.542 743.941 439.069L674.02 251.149C671.184 243.525 673.655 234.951 680.11 230.018L841.668 106.546Z" stroke="url(#paint97_linear_51915_45191)" stroke-width="3"/>
<path opacity="0.989899" d="M842.336 107.572C848.671 102.902 857.27 102.755 863.767 107.206L1031.29 221.947C1038 226.543 1040.92 234.979 1038.5 242.738L978.878 433.495C976.501 441.1 969.519 446.325 961.55 446.461L756.717 449.958C748.748 450.094 741.584 445.111 738.937 437.592L672.548 248.986C669.848 241.315 672.471 232.784 679.014 227.962L842.336 107.572Z" stroke="url(#paint98_linear_51915_45191)" stroke-width="3"/>
<path d="M842.994 108.655C849.411 104.094 858.011 104.094 864.428 108.655L1029.45 225.94C1036.08 230.65 1038.86 239.135 1036.29 246.851L973.441 436.079C970.928 443.643 963.854 448.747 955.884 448.747H751.538C743.568 448.747 736.494 443.643 733.981 436.079L671.128 246.851C668.565 239.135 671.34 230.65 677.967 225.94L842.994 108.655Z" stroke="url(#paint99_linear_51915_45191)" stroke-width="3"/>
</g>
<defs>
<linearGradient id="paint0_linear_51915_45191" x1="-1.84109e-06" y1="-38" x2="1183" y2="478" gradientUnits="userSpaceOnUse">
<stop stop-color="#E5F5FE"/>
<stop offset="0.767691" stop-color="#67A8D9" stop-opacity="0.35"/>
</linearGradient>
<linearGradient id="paint1_linear_51915_45191" x1="1133.04" y1="345.209" x2="1094.74" y2="66.6149" gradientUnits="userSpaceOnUse">
<stop stop-color="#7DB2E0"/>
<stop offset="1" stop-color="white"/>
</linearGradient>
<linearGradient id="paint2_linear_51915_45191" x1="1127.92" y1="346.144" x2="1094.45" y2="67.4731" gradientUnits="userSpaceOnUse">
<stop stop-color="#7DB2E0"/>
<stop offset="1" stop-color="white"/>
</linearGradient>
<linearGradient id="paint3_linear_51915_45191" x1="1122.81" y1="347.037" x2="1094.16" y2="68.369" gradientUnits="userSpaceOnUse">
<stop stop-color="#7DB2E0"/>
<stop offset="1" stop-color="white"/>
</linearGradient>
<linearGradient id="paint4_linear_51915_45191" x1="1117.7" y1="347.887" x2="1093.86" y2="69.3018" gradientUnits="userSpaceOnUse">
<stop stop-color="#7DB2E0"/>
<stop offset="1" stop-color="white"/>
</linearGradient>
<linearGradient id="paint5_linear_51915_45191" x1="1112.6" y1="348.695" x2="1093.56" y2="70.2717" gradientUnits="userSpaceOnUse">
<stop stop-color="#7DB2E0"/>
<stop offset="1" stop-color="white"/>
</linearGradient>
<linearGradient id="paint6_linear_51915_45191" x1="1107.5" y1="349.461" x2="1093.24" y2="71.2773" gradientUnits="userSpaceOnUse">
<stop stop-color="#7DB2E0"/>
<stop offset="1" stop-color="white"/>
</linearGradient>
<linearGradient id="paint7_linear_51915_45191" x1="1102.41" y1="350.184" x2="1092.92" y2="72.3191" gradientUnits="userSpaceOnUse">
<stop stop-color="#7DB2E0"/>
<stop offset="1" stop-color="white"/>
</linearGradient>
<linearGradient id="paint8_linear_51915_45191" x1="1097.34" y1="350.866" x2="1092.6" y2="73.3984" gradientUnits="userSpaceOnUse">
<stop stop-color="#7DB2E0"/>
<stop offset="1" stop-color="white"/>
</linearGradient>
<linearGradient id="paint9_linear_51915_45191" x1="1092.26" y1="351.506" x2="1092.26" y2="74.5127" gradientUnits="userSpaceOnUse">
<stop stop-color="#7DB2E0"/>
<stop offset="1" stop-color="white"/>
</linearGradient>
<linearGradient id="paint10_linear_51915_45191" x1="1087.18" y1="352.104" x2="1091.9" y2="75.6625" gradientUnits="userSpaceOnUse">
<stop stop-color="#7DB2E0"/>
<stop offset="1" stop-color="white"/>
</linearGradient>
<linearGradient id="paint11_linear_51915_45191" x1="1082.13" y1="352.662" x2="1091.55" y2="76.8482" gradientUnits="userSpaceOnUse">
<stop stop-color="#7DB2E0"/>
<stop offset="1" stop-color="white"/>
</linearGradient>
<linearGradient id="paint12_linear_51915_45191" x1="1077.09" y1="353.178" x2="1091.2" y2="78.0685" gradientUnits="userSpaceOnUse">
<stop stop-color="#7DB2E0"/>
<stop offset="1" stop-color="white"/>
</linearGradient>
<linearGradient id="paint13_linear_51915_45191" x1="1072.05" y1="353.654" x2="1090.81" y2="79.3247" gradientUnits="userSpaceOnUse">
<stop stop-color="#7DB2E0"/>
<stop offset="1" stop-color="white"/>
</linearGradient>
<linearGradient id="paint14_linear_51915_45191" x1="1067.03" y1="354.089" x2="1090.43" y2="80.6154" gradientUnits="userSpaceOnUse">
<stop stop-color="#7DB2E0"/>
<stop offset="1" stop-color="white"/>
</linearGradient>
<linearGradient id="paint15_linear_51915_45191" x1="1062.02" y1="354.485" x2="1090.04" y2="81.9416" gradientUnits="userSpaceOnUse">
<stop stop-color="#7DB2E0"/>
<stop offset="1" stop-color="white"/>
</linearGradient>
<linearGradient id="paint16_linear_51915_45191" x1="1057.03" y1="354.84" x2="1089.64" y2="83.3011" gradientUnits="userSpaceOnUse">
<stop stop-color="#7DB2E0"/>
<stop offset="1" stop-color="white"/>
</linearGradient>
<linearGradient id="paint17_linear_51915_45191" x1="1052.05" y1="355.157" x2="1089.23" y2="84.6968" gradientUnits="userSpaceOnUse">
<stop stop-color="#7DB2E0"/>
<stop offset="1" stop-color="white"/>
</linearGradient>
<linearGradient id="paint18_linear_51915_45191" x1="1047.07" y1="355.433" x2="1088.79" y2="86.1258" gradientUnits="userSpaceOnUse">
<stop stop-color="#7DB2E0"/>
<stop offset="1" stop-color="white"/>
</linearGradient>
<linearGradient id="paint19_linear_51915_45191" x1="1042.12" y1="355.671" x2="1088.36" y2="87.589" gradientUnits="userSpaceOnUse">
<stop stop-color="#7DB2E0"/>
<stop offset="1" stop-color="white"/>
</linearGradient>
<linearGradient id="paint20_linear_51915_45191" x1="1037.18" y1="355.87" x2="1087.91" y2="89.0855" gradientUnits="userSpaceOnUse">
<stop stop-color="#7DB2E0"/>
<stop offset="1" stop-color="white"/>
</linearGradient>
<linearGradient id="paint21_linear_51915_45191" x1="1032.25" y1="356.031" x2="1087.44" y2="90.6171" gradientUnits="userSpaceOnUse">
<stop stop-color="#7DB2E0"/>
<stop offset="1" stop-color="white"/>
</linearGradient>
<linearGradient id="paint22_linear_51915_45191" x1="1027.36" y1="356.154" x2="1086.97" y2="92.1814" gradientUnits="userSpaceOnUse">
<stop stop-color="#7DB2E0"/>
<stop offset="1" stop-color="white"/>
</linearGradient>
<linearGradient id="paint23_linear_51915_45191" x1="1022.47" y1="356.241" x2="1086.48" y2="93.781" gradientUnits="userSpaceOnUse">
<stop stop-color="#7DB2E0"/>
<stop offset="1" stop-color="white"/>
</linearGradient>
<linearGradient id="paint24_linear_51915_45191" x1="1017.6" y1="356.29" x2="1085.98" y2="95.4134" gradientUnits="userSpaceOnUse">
<stop stop-color="#7DB2E0"/>
<stop offset="1" stop-color="white"/>
</linearGradient>
<linearGradient id="paint25_linear_51915_45191" x1="1012.75" y1="356.301" x2="1085.46" y2="97.0783" gradientUnits="userSpaceOnUse">
<stop stop-color="#7DB2E0"/>
<stop offset="1" stop-color="white"/>
</linearGradient>
<linearGradient id="paint26_linear_51915_45191" x1="1007.92" y1="356.276" x2="1084.93" y2="98.7763" gradientUnits="userSpaceOnUse">
<stop stop-color="#7DB2E0"/>
<stop offset="1" stop-color="white"/>
</linearGradient>
<linearGradient id="paint27_linear_51915_45191" x1="1003.12" y1="356.217" x2="1084.39" y2="100.509" gradientUnits="userSpaceOnUse">
<stop stop-color="#7DB2E0"/>
<stop offset="1" stop-color="white"/>
</linearGradient>
<linearGradient id="paint28_linear_51915_45191" x1="998.319" y1="356.121" x2="1083.82" y2="102.274" gradientUnits="userSpaceOnUse">
<stop stop-color="#7DB2E0"/>
<stop offset="1" stop-color="white"/>
</linearGradient>
<linearGradient id="paint29_linear_51915_45191" x1="993.562" y1="355.991" x2="1083.25" y2="104.073" gradientUnits="userSpaceOnUse">
<stop stop-color="#7DB2E0"/>
<stop offset="1" stop-color="white"/>
</linearGradient>
<linearGradient id="paint30_linear_51915_45191" x1="988.815" y1="355.826" x2="1082.66" y2="105.903" gradientUnits="userSpaceOnUse">
<stop stop-color="#7DB2E0"/>
<stop offset="1" stop-color="white"/>
</linearGradient>
<linearGradient id="paint31_linear_51915_45191" x1="984.097" y1="355.628" x2="1082.06" y2="107.768" gradientUnits="userSpaceOnUse">
<stop stop-color="#7DB2E0"/>
<stop offset="1" stop-color="white"/>
</linearGradient>
<linearGradient id="paint32_linear_51915_45191" x1="979.401" y1="355.394" x2="1081.43" y2="109.663" gradientUnits="userSpaceOnUse">
<stop stop-color="#7DB2E0"/>
<stop offset="1" stop-color="white"/>
</linearGradient>
<linearGradient id="paint33_linear_51915_45191" x1="974.724" y1="355.129" x2="1080.79" y2="111.593" gradientUnits="userSpaceOnUse">
<stop stop-color="#7DB2E0"/>
<stop offset="1" stop-color="white"/>
</linearGradient>
<linearGradient id="paint34_linear_51915_45191" x1="970.078" y1="354.83" x2="1080.13" y2="113.553" gradientUnits="userSpaceOnUse">
<stop stop-color="#7DB2E0"/>
<stop offset="1" stop-color="white"/>
</linearGradient>
<linearGradient id="paint35_linear_51915_45191" x1="965.454" y1="354.5" x2="1079.46" y2="115.548" gradientUnits="userSpaceOnUse">
<stop stop-color="#7DB2E0"/>
<stop offset="1" stop-color="white"/>
</linearGradient>
<linearGradient id="paint36_linear_51915_45191" x1="960.859" y1="354.138" x2="1078.77" y2="117.574" gradientUnits="userSpaceOnUse">
<stop stop-color="#7DB2E0"/>
<stop offset="1" stop-color="white"/>
</linearGradient>
<linearGradient id="paint37_linear_51915_45191" x1="956.284" y1="353.745" x2="1078.05" y2="119.632" gradientUnits="userSpaceOnUse">
<stop stop-color="#7DB2E0"/>
<stop offset="1" stop-color="white"/>
</linearGradient>
<linearGradient id="paint38_linear_51915_45191" x1="951.742" y1="353.321" x2="1077.32" y2="121.721" gradientUnits="userSpaceOnUse">
<stop stop-color="#7DB2E0"/>
<stop offset="1" stop-color="white"/>
</linearGradient>
<linearGradient id="paint39_linear_51915_45191" x1="947.23" y1="352.867" x2="1076.58" y2="123.842" gradientUnits="userSpaceOnUse">
<stop stop-color="#7DB2E0"/>
<stop offset="1" stop-color="white"/>
</linearGradient>
<linearGradient id="paint40_linear_51915_45191" x1="942.728" y1="352.383" x2="1075.79" y2="125.994" gradientUnits="userSpaceOnUse">
<stop stop-color="#7DB2E0"/>
<stop offset="1" stop-color="white"/>
</linearGradient>
<linearGradient id="paint41_linear_51915_45191" x1="938.28" y1="351.871" x2="1075.01" y2="128.179" gradientUnits="userSpaceOnUse">
<stop stop-color="#7DB2E0"/>
<stop offset="1" stop-color="white"/>
</linearGradient>
<linearGradient id="paint42_linear_51915_45191" x1="933.836" y1="351.33" x2="1074.19" y2="130.395" gradientUnits="userSpaceOnUse">
<stop stop-color="#7DB2E0"/>
<stop offset="1" stop-color="white"/>
</linearGradient>
<linearGradient id="paint43_linear_51915_45191" x1="929.431" y1="350.761" x2="1073.35" y2="132.641" gradientUnits="userSpaceOnUse">
<stop stop-color="#7DB2E0"/>
<stop offset="1" stop-color="white"/>
</linearGradient>
<linearGradient id="paint44_linear_51915_45191" x1="925.059" y1="350.164" x2="1072.49" y2="134.918" gradientUnits="userSpaceOnUse">
<stop stop-color="#7DB2E0"/>
<stop offset="1" stop-color="white"/>
</linearGradient>
<linearGradient id="paint45_linear_51915_45191" x1="920.709" y1="349.542" x2="1071.6" y2="137.227" gradientUnits="userSpaceOnUse">
<stop stop-color="#7DB2E0"/>
<stop offset="1" stop-color="white"/>
</linearGradient>
<linearGradient id="paint46_linear_51915_45191" x1="916.401" y1="348.893" x2="1070.7" y2="139.565" gradientUnits="userSpaceOnUse">
<stop stop-color="#7DB2E0"/>
<stop offset="1" stop-color="white"/>
</linearGradient>
<linearGradient id="paint47_linear_51915_45191" x1="912.115" y1="348.217" x2="1069.77" y2="141.933" gradientUnits="userSpaceOnUse">
<stop stop-color="#7DB2E0"/>
<stop offset="1" stop-color="white"/>
</linearGradient>
<linearGradient id="paint48_linear_51915_45191" x1="907.866" y1="347.517" x2="1068.82" y2="144.331" gradientUnits="userSpaceOnUse">
<stop stop-color="#7DB2E0"/>
<stop offset="1" stop-color="white"/>
</linearGradient>
<linearGradient id="paint49_linear_51915_45191" x1="903.644" y1="346.792" x2="1067.84" y2="146.758" gradientUnits="userSpaceOnUse">
<stop stop-color="#7DB2E0"/>
<stop offset="1" stop-color="white"/>
</linearGradient>
<linearGradient id="paint50_linear_51915_45191" x1="899.452" y1="346.044" x2="1066.82" y2="149.215" gradientUnits="userSpaceOnUse">
<stop stop-color="#7DB2E0"/>
<stop offset="1" stop-color="white"/>
</linearGradient>
<linearGradient id="paint51_linear_51915_45191" x1="895.294" y1="345.273" x2="1065.79" y2="151.701" gradientUnits="userSpaceOnUse">
<stop stop-color="#7DB2E0"/>
<stop offset="1" stop-color="white"/>
</linearGradient>
<linearGradient id="paint52_linear_51915_45191" x1="891.174" y1="344.479" x2="1064.73" y2="154.215" gradientUnits="userSpaceOnUse">
<stop stop-color="#7DB2E0"/>
<stop offset="1" stop-color="white"/>
</linearGradient>
<linearGradient id="paint53_linear_51915_45191" x1="887.075" y1="343.663" x2="1063.63" y2="156.758" gradientUnits="userSpaceOnUse">
<stop stop-color="#7DB2E0"/>
<stop offset="1" stop-color="white"/>
</linearGradient>
<linearGradient id="paint54_linear_51915_45191" x1="883.019" y1="342.826" x2="1062.52" y2="159.329" gradientUnits="userSpaceOnUse">
<stop stop-color="#7DB2E0"/>
<stop offset="1" stop-color="white"/>
</linearGradient>
<linearGradient id="paint55_linear_51915_45191" x1="879.002" y1="341.968" x2="1061.38" y2="161.927" gradientUnits="userSpaceOnUse">
<stop stop-color="#7DB2E0"/>
<stop offset="1" stop-color="white"/>
</linearGradient>
<linearGradient id="paint56_linear_51915_45191" x1="875.01" y1="341.09" x2="1060.2" y2="164.552" gradientUnits="userSpaceOnUse">
<stop stop-color="#7DB2E0"/>
<stop offset="1" stop-color="white"/>
</linearGradient>
<linearGradient id="paint57_linear_51915_45191" x1="871.058" y1="340.192" x2="1058.99" y2="167.203" gradientUnits="userSpaceOnUse">
<stop stop-color="#7DB2E0"/>
<stop offset="1" stop-color="white"/>
</linearGradient>
<linearGradient id="paint58_linear_51915_45191" x1="867.134" y1="339.276" x2="1057.75" y2="169.882" gradientUnits="userSpaceOnUse">
<stop stop-color="#7DB2E0"/>
<stop offset="1" stop-color="white"/>
</linearGradient>
<linearGradient id="paint59_linear_51915_45191" x1="863.243" y1="338.341" x2="1056.48" y2="172.586" gradientUnits="userSpaceOnUse">
<stop stop-color="#7DB2E0"/>
<stop offset="1" stop-color="white"/>
</linearGradient>
<linearGradient id="paint60_linear_51915_45191" x1="859.387" y1="337.389" x2="1055.17" y2="175.315" gradientUnits="userSpaceOnUse">
<stop stop-color="#7DB2E0"/>
<stop offset="1" stop-color="white"/>
</linearGradient>
<linearGradient id="paint61_linear_51915_45191" x1="855.581" y1="336.42" x2="1053.84" y2="178.068" gradientUnits="userSpaceOnUse">
<stop stop-color="#7DB2E0"/>
<stop offset="1" stop-color="white"/>
</linearGradient>
<linearGradient id="paint62_linear_51915_45191" x1="851.792" y1="335.435" x2="1052.47" y2="180.847" gradientUnits="userSpaceOnUse">
<stop stop-color="#7DB2E0"/>
<stop offset="1" stop-color="white"/>
</linearGradient>
<linearGradient id="paint63_linear_51915_45191" x1="848.055" y1="334.435" x2="1051.07" y2="183.649" gradientUnits="userSpaceOnUse">
<stop stop-color="#7DB2E0"/>
<stop offset="1" stop-color="white"/>
</linearGradient>
<linearGradient id="paint64_linear_51915_45191" x1="844.353" y1="333.419" x2="1049.64" y2="186.473" gradientUnits="userSpaceOnUse">
<stop stop-color="#7DB2E0"/>
<stop offset="1" stop-color="white"/>
</linearGradient>
<linearGradient id="paint65_linear_51915_45191" x1="840.678" y1="332.389" x2="1048.16" y2="189.32" gradientUnits="userSpaceOnUse">
<stop stop-color="#7DB2E0"/>
<stop offset="1" stop-color="white"/>
</linearGradient>
<linearGradient id="paint66_linear_51915_45191" x1="837.04" y1="331.345" x2="1046.65" y2="192.188" gradientUnits="userSpaceOnUse">
<stop stop-color="#7DB2E0"/>
<stop offset="1" stop-color="white"/>
</linearGradient>
<linearGradient id="paint67_linear_51915_45191" x1="833.442" y1="330.288" x2="1045.11" y2="195.077" gradientUnits="userSpaceOnUse">
<stop stop-color="#7DB2E0"/>
<stop offset="1" stop-color="white"/>
</linearGradient>
<linearGradient id="paint68_linear_51915_45191" x1="829.88" y1="329.219" x2="1043.53" y2="197.987" gradientUnits="userSpaceOnUse">
<stop stop-color="#7DB2E0"/>
<stop offset="1" stop-color="white"/>
</linearGradient>
<linearGradient id="paint69_linear_51915_45191" x1="826.348" y1="328.139" x2="1041.9" y2="200.917" gradientUnits="userSpaceOnUse">
<stop stop-color="#7DB2E0"/>
<stop offset="1" stop-color="white"/>
</linearGradient>
<linearGradient id="paint70_linear_51915_45191" x1="822.862" y1="327.048" x2="1040.24" y2="203.866" gradientUnits="userSpaceOnUse">
<stop stop-color="#7DB2E0"/>
<stop offset="1" stop-color="white"/>
</linearGradient>
<linearGradient id="paint71_linear_51915_45191" x1="819.413" y1="325.946" x2="1038.55" y2="206.833" gradientUnits="userSpaceOnUse">
<stop stop-color="#7DB2E0"/>
<stop offset="1" stop-color="white"/>
</linearGradient>
<linearGradient id="paint72_linear_51915_45191" x1="815.995" y1="324.835" x2="1036.81" y2="209.817" gradientUnits="userSpaceOnUse">
<stop stop-color="#7DB2E0"/>
<stop offset="1" stop-color="white"/>
</linearGradient>
<linearGradient id="paint73_linear_51915_45191" x1="812.617" y1="323.715" x2="1035.03" y2="212.818" gradientUnits="userSpaceOnUse">
<stop stop-color="#7DB2E0"/>
<stop offset="1" stop-color="white"/>
</linearGradient>
<linearGradient id="paint74_linear_51915_45191" x1="809.28" y1="322.587" x2="1033.22" y2="215.835" gradientUnits="userSpaceOnUse">
<stop stop-color="#7DB2E0"/>
<stop offset="1" stop-color="white"/>
</linearGradient>
<linearGradient id="paint75_linear_51915_45191" x1="805.977" y1="321.45" x2="1031.36" y2="218.866" gradientUnits="userSpaceOnUse">
<stop stop-color="#7DB2E0"/>
<stop offset="1" stop-color="white"/>
</linearGradient>
<linearGradient id="paint76_linear_51915_45191" x1="802.722" y1="320.308" x2="1029.48" y2="221.912" gradientUnits="userSpaceOnUse">
<stop stop-color="#7DB2E0"/>
<stop offset="1" stop-color="white"/>
</linearGradient>
<linearGradient id="paint77_linear_51915_45191" x1="799.491" y1="319.159" x2="1027.53" y2="224.972" gradientUnits="userSpaceOnUse">
<stop stop-color="#7DB2E0"/>
<stop offset="1" stop-color="white"/>
</linearGradient>
<linearGradient id="paint78_linear_51915_45191" x1="796.303" y1="318.006" x2="1025.55" y2="228.044" gradientUnits="userSpaceOnUse">
<stop stop-color="#7DB2E0"/>
<stop offset="1" stop-color="white"/>
</linearGradient>
<linearGradient id="paint79_linear_51915_45191" x1="793.149" y1="316.846" x2="1023.53" y2="231.126" gradientUnits="userSpaceOnUse">
<stop stop-color="#7DB2E0"/>
<stop offset="1" stop-color="white"/>
</linearGradient>
<linearGradient id="paint80_linear_51915_45191" x1="790.036" y1="315.683" x2="1021.47" y2="234.22" gradientUnits="userSpaceOnUse">
<stop stop-color="#7DB2E0"/>
<stop offset="1" stop-color="white"/>
</linearGradient>
<linearGradient id="paint81_linear_51915_45191" x1="786.964" y1="314.515" x2="1019.36" y2="237.322" gradientUnits="userSpaceOnUse">
<stop stop-color="#7DB2E0"/>
<stop offset="1" stop-color="white"/>
</linearGradient>
<linearGradient id="paint82_linear_51915_45191" x1="783.927" y1="313.346" x2="1017.21" y2="240.434" gradientUnits="userSpaceOnUse">
<stop stop-color="#7DB2E0"/>
<stop offset="1" stop-color="white"/>
</linearGradient>
<linearGradient id="paint83_linear_51915_45191" x1="780.918" y1="312.173" x2="1015.01" y2="243.552" gradientUnits="userSpaceOnUse">
<stop stop-color="#7DB2E0"/>
<stop offset="1" stop-color="white"/>
</linearGradient>
<linearGradient id="paint84_linear_51915_45191" x1="777.962" y1="311" x2="1012.78" y2="246.678" gradientUnits="userSpaceOnUse">
<stop stop-color="#7DB2E0"/>
<stop offset="1" stop-color="white"/>
</linearGradient>
<linearGradient id="paint85_linear_51915_45191" x1="775.036" y1="309.825" x2="1010.5" y2="249.809" gradientUnits="userSpaceOnUse">
<stop stop-color="#7DB2E0"/>
<stop offset="1" stop-color="white"/>
</linearGradient>
<linearGradient id="paint86_linear_51915_45191" x1="772.138" y1="308.65" x2="1008.16" y2="252.945" gradientUnits="userSpaceOnUse">
<stop stop-color="#7DB2E0"/>
<stop offset="1" stop-color="white"/>
</linearGradient>
<linearGradient id="paint87_linear_51915_45191" x1="769.288" y1="307.476" x2="1005.8" y2="256.085" gradientUnits="userSpaceOnUse">
<stop stop-color="#7DB2E0"/>
<stop offset="1" stop-color="white"/>
</linearGradient>
<linearGradient id="paint88_linear_51915_45191" x1="766.488" y1="306.302" x2="1003.4" y2="259.226" gradientUnits="userSpaceOnUse">
<stop stop-color="#7DB2E0"/>
<stop offset="1" stop-color="white"/>
</linearGradient>
<linearGradient id="paint89_linear_51915_45191" x1="763.701" y1="305.131" x2="1000.93" y2="262.369" gradientUnits="userSpaceOnUse">
<stop stop-color="#7DB2E0"/>
<stop offset="1" stop-color="white"/>
</linearGradient>
<linearGradient id="paint90_linear_51915_45191" x1="760.965" y1="303.963" x2="998.43" y2="265.515" gradientUnits="userSpaceOnUse">
<stop stop-color="#7DB2E0"/>
<stop offset="1" stop-color="white"/>
</linearGradient>
<linearGradient id="paint91_linear_51915_45191" x1="758.267" y1="302.796" x2="995.888" y2="268.657" gradientUnits="userSpaceOnUse">
<stop stop-color="#7DB2E0"/>
<stop offset="1" stop-color="white"/>
</linearGradient>
<linearGradient id="paint92_linear_51915_45191" x1="755.605" y1="301.634" x2="993.3" y2="271.798" gradientUnits="userSpaceOnUse">
<stop stop-color="#7DB2E0"/>
<stop offset="1" stop-color="white"/>
</linearGradient>
<linearGradient id="paint93_linear_51915_45191" x1="752.963" y1="300.476" x2="990.652" y2="274.937" gradientUnits="userSpaceOnUse">
<stop stop-color="#7DB2E0"/>
<stop offset="1" stop-color="white"/>
</linearGradient>
<linearGradient id="paint94_linear_51915_45191" x1="750.378" y1="299.324" x2="987.981" y2="278.073" gradientUnits="userSpaceOnUse">
<stop stop-color="#7DB2E0"/>
<stop offset="1" stop-color="white"/>
</linearGradient>
<linearGradient id="paint95_linear_51915_45191" x1="747.824" y1="298.176" x2="985.26" y2="281.203" gradientUnits="userSpaceOnUse">
<stop stop-color="#7DB2E0"/>
<stop offset="1" stop-color="white"/>
</linearGradient>
<linearGradient id="paint96_linear_51915_45191" x1="745.302" y1="297.035" x2="982.491" y2="284.328" gradientUnits="userSpaceOnUse">
<stop stop-color="#7DB2E0"/>
<stop offset="1" stop-color="white"/>
</linearGradient>
<linearGradient id="paint97_linear_51915_45191" x1="742.814" y1="295.9" x2="979.676" y2="287.444" gradientUnits="userSpaceOnUse">
<stop stop-color="#7DB2E0"/>
<stop offset="1" stop-color="white"/>
</linearGradient>
<linearGradient id="paint98_linear_51915_45191" x1="740.369" y1="294.773" x2="976.824" y2="290.554" gradientUnits="userSpaceOnUse">
<stop stop-color="#7DB2E0"/>
<stop offset="1" stop-color="white"/>
</linearGradient>
<linearGradient id="paint99_linear_51915_45191" x1="737.959" y1="293.655" x2="973.929" y2="293.655" gradientUnits="userSpaceOnUse">
<stop stop-color="#7DB2E0"/>
<stop offset="1" stop-color="white"/>
</linearGradient>
<clipPath id="clip0_51915_45191">
<rect width="1232" height="378" rx="35" fill="white"/>
</clipPath>
</defs>
</svg>
